%TF.GenerationSoftware,KiCad,Pcbnew,(5.1.6)-1*%
%TF.CreationDate,2020-10-02T15:43:25+02:00*%
%TF.ProjectId,netzteilegeregelt,6e65747a-7465-4696-9c65-676572656765,rev?*%
%TF.SameCoordinates,Original*%
%TF.FileFunction,Soldermask,Top*%
%TF.FilePolarity,Negative*%
%FSLAX46Y46*%
G04 Gerber Fmt 4.6, Leading zero omitted, Abs format (unit mm)*
G04 Created by KiCad (PCBNEW (5.1.6)-1) date 2020-10-02 15:43:25*
%MOMM*%
%LPD*%
G01*
G04 APERTURE LIST*
%ADD10O,2.900000X4.100000*%
%ADD11C,3.700000*%
%ADD12O,7.600000X9.600000*%
%ADD13C,3.100000*%
%ADD14R,3.100000X3.100000*%
%ADD15R,3.600000X3.600000*%
%ADD16C,3.300000*%
%ADD17C,5.600000*%
G04 APERTURE END LIST*
D10*
%TO.C,SW1*%
X127700000Y-65000000D03*
X123000000Y-65000000D03*
X118300000Y-65000000D03*
%TD*%
D11*
%TO.C,R2*%
X132000000Y-144000000D03*
X132000000Y-64600000D03*
D12*
X142000000Y-82300000D03*
X142000000Y-126300000D03*
%TD*%
D13*
%TO.C,J5*%
X61000000Y-113080000D03*
D14*
X61000000Y-108000000D03*
%TD*%
D13*
%TO.C,J4*%
X56920000Y-127000000D03*
D14*
X62000000Y-127000000D03*
%TD*%
D13*
%TO.C,J3*%
X98920000Y-88000000D03*
D14*
X104000000Y-88000000D03*
%TD*%
%TO.C,J2*%
G36*
G01*
X59200000Y-95900000D02*
X59200000Y-94100000D01*
G75*
G02*
X60100000Y-93200000I900000J0D01*
G01*
X61900000Y-93200000D01*
G75*
G02*
X62800000Y-94100000I0J-900000D01*
G01*
X62800000Y-95900000D01*
G75*
G02*
X61900000Y-96800000I-900000J0D01*
G01*
X60100000Y-96800000D01*
G75*
G02*
X59200000Y-95900000I0J900000D01*
G01*
G37*
G36*
G01*
X56450000Y-100725000D02*
X56450000Y-98675000D01*
G75*
G02*
X57225000Y-97900000I775000J0D01*
G01*
X58775000Y-97900000D01*
G75*
G02*
X59550000Y-98675000I0J-775000D01*
G01*
X59550000Y-100725000D01*
G75*
G02*
X58775000Y-101500000I-775000J0D01*
G01*
X57225000Y-101500000D01*
G75*
G02*
X56450000Y-100725000I0J775000D01*
G01*
G37*
D15*
X64000000Y-99700000D03*
%TD*%
%TO.C,J1*%
G36*
G01*
X59200000Y-83900000D02*
X59200000Y-82100000D01*
G75*
G02*
X60100000Y-81200000I900000J0D01*
G01*
X61900000Y-81200000D01*
G75*
G02*
X62800000Y-82100000I0J-900000D01*
G01*
X62800000Y-83900000D01*
G75*
G02*
X61900000Y-84800000I-900000J0D01*
G01*
X60100000Y-84800000D01*
G75*
G02*
X59200000Y-83900000I0J900000D01*
G01*
G37*
G36*
G01*
X56450000Y-88725000D02*
X56450000Y-86675000D01*
G75*
G02*
X57225000Y-85900000I775000J0D01*
G01*
X58775000Y-85900000D01*
G75*
G02*
X59550000Y-86675000I0J-775000D01*
G01*
X59550000Y-88725000D01*
G75*
G02*
X58775000Y-89500000I-775000J0D01*
G01*
X57225000Y-89500000D01*
G75*
G02*
X56450000Y-88725000I0J775000D01*
G01*
G37*
X64000000Y-87700000D03*
%TD*%
D16*
%TO.C,H4*%
X142000000Y-142000000D03*
%TD*%
%TO.C,H3*%
X58000000Y-58000000D03*
%TD*%
%TO.C,H2*%
X58000000Y-142000000D03*
%TD*%
%TO.C,H1*%
X139040000Y-58575000D03*
%TD*%
D17*
%TO.C,R1*%
X88000000Y-124000000D03*
%TD*%
M02*
