M48
; DRILL file {KiCad (5.1.6)-1} date 10/02/20 15:43:34
; FORMAT={-:-/ absolute / inch / decimal}
; #@! TF.CreationDate,2020-10-02T15:43:34+02:00
; #@! TF.GenerationSoftware,Kicad,Pcbnew,(5.1.6)-1
FMAT,2
INCH
T1C0.0394
T2C0.0472
T3C0.0598
T4C0.0630
T5C0.1260
T6C0.1378
T7C0.2165
%
G90
G05
T3
X3.8945Y-3.4646
X4.0945Y-3.4646
X2.4016Y-4.252
X2.4016Y-4.452
X2.2409Y-5.0
X2.4409Y-5.0
T4
X5.1969Y-2.5433
X5.1969Y-5.6693
T5
X2.2835Y-2.2835
X5.5906Y-5.5906
X5.474Y-2.3061
X2.2835Y-5.5906
T7
X3.4646Y-4.8819
T1
G00X2.2835Y-3.4134
M15
G01X2.2835Y-3.4921
M16
G05
G00X2.3622Y-3.2677
M15
G01X2.4409Y-3.2677
M16
G05
G00X2.5197Y-3.4134
M15
G01X2.5197Y-3.4921
M16
G05
G00X2.2835Y-3.8858
M15
G01X2.2835Y-3.9646
M16
G05
G00X2.3622Y-3.7402
M15
G01X2.4409Y-3.7402
M16
G05
G00X2.5197Y-3.8858
M15
G01X2.5197Y-3.9646
M16
G05
T2
G00X4.6575Y-2.5827
M15
G01X4.6575Y-2.5354
M16
G05
G00X4.8425Y-2.5827
M15
G01X4.8425Y-2.5354
M16
G05
G00X5.0276Y-2.5827
M15
G01X5.0276Y-2.5354
M16
G05
T6
G00X5.5906Y-3.2008
M15
G01X5.5906Y-3.2795
M16
G05
G00X5.5906Y-4.9331
M15
G01X5.5906Y-5.0118
M16
G05
T0
M30
