%TF.GenerationSoftware,KiCad,Pcbnew,(5.1.6)-1*%
%TF.CreationDate,2020-10-02T15:43:25+02:00*%
%TF.ProjectId,netzteilegeregelt,6e65747a-7465-4696-9c65-676572656765,rev?*%
%TF.SameCoordinates,Original*%
%TF.FileFunction,Copper,L1,Top*%
%TF.FilePolarity,Positive*%
%FSLAX46Y46*%
G04 Gerber Fmt 4.6, Leading zero omitted, Abs format (unit mm)*
G04 Created by KiCad (PCBNEW (5.1.6)-1) date 2020-10-02 15:43:25*
%MOMM*%
%LPD*%
G01*
G04 APERTURE LIST*
%TA.AperFunction,ComponentPad*%
%ADD10O,2.800000X4.000000*%
%TD*%
%TA.AperFunction,ComponentPad*%
%ADD11C,3.600000*%
%TD*%
%TA.AperFunction,WasherPad*%
%ADD12O,7.500000X9.500000*%
%TD*%
%TA.AperFunction,ComponentPad*%
%ADD13C,3.000000*%
%TD*%
%TA.AperFunction,ComponentPad*%
%ADD14R,3.000000X3.000000*%
%TD*%
%TA.AperFunction,ComponentPad*%
%ADD15R,3.500000X3.500000*%
%TD*%
%TA.AperFunction,Conductor*%
%ADD16C,0.254000*%
%TD*%
G04 APERTURE END LIST*
D10*
%TO.P,SW1,3*%
%TO.N,Net-(R2-Pad1)*%
X127700000Y-65000000D03*
%TO.P,SW1,2*%
%TO.N,Net-(J3-Pad2)*%
X123000000Y-65000000D03*
%TO.P,SW1,1*%
%TO.N,Net-(SW1-Pad1)*%
X118300000Y-65000000D03*
%TD*%
D11*
%TO.P,R2,2*%
%TO.N,Net-(J4-Pad1)*%
X132000000Y-144000000D03*
%TO.P,R2,1*%
%TO.N,Net-(R2-Pad1)*%
X132000000Y-64600000D03*
D12*
%TO.P,R2,*%
%TO.N,*%
X142000000Y-82300000D03*
X142000000Y-126300000D03*
%TD*%
D13*
%TO.P,J5,2*%
%TO.N,GND*%
X61000000Y-113080000D03*
D14*
%TO.P,J5,1*%
%TO.N,+12V*%
X61000000Y-108000000D03*
%TD*%
D13*
%TO.P,J4,2*%
%TO.N,GND*%
X56920000Y-127000000D03*
D14*
%TO.P,J4,1*%
%TO.N,Net-(J4-Pad1)*%
X62000000Y-127000000D03*
%TD*%
D13*
%TO.P,J3,2*%
%TO.N,Net-(J3-Pad2)*%
X98920000Y-88000000D03*
D14*
%TO.P,J3,1*%
%TO.N,+12V*%
X104000000Y-88000000D03*
%TD*%
%TO.P,J2,3*%
%TO.N,GND*%
%TA.AperFunction,ComponentPad*%
G36*
G01*
X59250000Y-95875000D02*
X59250000Y-94125000D01*
G75*
G02*
X60125000Y-93250000I875000J0D01*
G01*
X61875000Y-93250000D01*
G75*
G02*
X62750000Y-94125000I0J-875000D01*
G01*
X62750000Y-95875000D01*
G75*
G02*
X61875000Y-96750000I-875000J0D01*
G01*
X60125000Y-96750000D01*
G75*
G02*
X59250000Y-95875000I0J875000D01*
G01*
G37*
%TD.AperFunction*%
%TO.P,J2,2*%
%TA.AperFunction,ComponentPad*%
G36*
G01*
X56500000Y-100700000D02*
X56500000Y-98700000D01*
G75*
G02*
X57250000Y-97950000I750000J0D01*
G01*
X58750000Y-97950000D01*
G75*
G02*
X59500000Y-98700000I0J-750000D01*
G01*
X59500000Y-100700000D01*
G75*
G02*
X58750000Y-101450000I-750000J0D01*
G01*
X57250000Y-101450000D01*
G75*
G02*
X56500000Y-100700000I0J750000D01*
G01*
G37*
%TD.AperFunction*%
D15*
%TO.P,J2,1*%
%TO.N,+12V*%
X64000000Y-99700000D03*
%TD*%
%TO.P,J1,3*%
%TO.N,Net-(D3-Pad2)*%
%TA.AperFunction,ComponentPad*%
G36*
G01*
X59250000Y-83875000D02*
X59250000Y-82125000D01*
G75*
G02*
X60125000Y-81250000I875000J0D01*
G01*
X61875000Y-81250000D01*
G75*
G02*
X62750000Y-82125000I0J-875000D01*
G01*
X62750000Y-83875000D01*
G75*
G02*
X61875000Y-84750000I-875000J0D01*
G01*
X60125000Y-84750000D01*
G75*
G02*
X59250000Y-83875000I0J875000D01*
G01*
G37*
%TD.AperFunction*%
%TO.P,J1,2*%
%TA.AperFunction,ComponentPad*%
G36*
G01*
X56500000Y-88700000D02*
X56500000Y-86700000D01*
G75*
G02*
X57250000Y-85950000I750000J0D01*
G01*
X58750000Y-85950000D01*
G75*
G02*
X59500000Y-86700000I0J-750000D01*
G01*
X59500000Y-88700000D01*
G75*
G02*
X58750000Y-89450000I-750000J0D01*
G01*
X57250000Y-89450000D01*
G75*
G02*
X56500000Y-88700000I0J750000D01*
G01*
G37*
%TD.AperFunction*%
%TO.P,J1,1*%
%TO.N,Net-(D1-Pad2)*%
X64000000Y-87700000D03*
%TD*%
D16*
%TO.N,GND*%
G36*
X119340000Y-52967580D02*
G01*
X119336807Y-53000000D01*
X119349550Y-53129383D01*
X119387290Y-53253793D01*
X119448575Y-53368450D01*
X119531052Y-53468948D01*
X119631550Y-53551425D01*
X119746207Y-53612710D01*
X119870617Y-53650450D01*
X120000000Y-53663193D01*
X120032419Y-53660000D01*
X146340000Y-53660000D01*
X146340001Y-79967571D01*
X146336807Y-80000000D01*
X146349550Y-80129383D01*
X146387290Y-80253793D01*
X146448575Y-80368450D01*
X146531052Y-80468948D01*
X146631550Y-80551425D01*
X146746207Y-80612710D01*
X146870617Y-80650450D01*
X146967581Y-80660000D01*
X147000000Y-80663193D01*
X147032419Y-80660000D01*
X149340000Y-80660000D01*
X149340001Y-119340000D01*
X147032419Y-119340000D01*
X147000000Y-119336807D01*
X146967581Y-119340000D01*
X146870617Y-119349550D01*
X146746207Y-119387290D01*
X146631550Y-119448575D01*
X146531052Y-119531052D01*
X146448575Y-119631550D01*
X146387290Y-119746207D01*
X146349550Y-119870617D01*
X146336807Y-120000000D01*
X146340001Y-120032429D01*
X146340001Y-124627695D01*
X146321553Y-124440391D01*
X146070814Y-123613815D01*
X145663636Y-122852037D01*
X145115666Y-122184334D01*
X144447963Y-121636364D01*
X143686186Y-121229186D01*
X142859610Y-120978447D01*
X142000000Y-120893783D01*
X141140391Y-120978447D01*
X140313815Y-121229186D01*
X139552038Y-121636364D01*
X138884335Y-122184334D01*
X138336365Y-122852037D01*
X137929186Y-123613814D01*
X137678447Y-124440390D01*
X137615000Y-125084580D01*
X137615000Y-127515419D01*
X137678447Y-128159609D01*
X137929186Y-128986185D01*
X138336364Y-129747963D01*
X138884334Y-130415666D01*
X139552037Y-130963636D01*
X140313814Y-131370814D01*
X141140390Y-131621553D01*
X142000000Y-131706217D01*
X142859609Y-131621553D01*
X143686185Y-131370814D01*
X144447963Y-130963636D01*
X145115666Y-130415666D01*
X145663636Y-129747963D01*
X146070814Y-128986186D01*
X146321553Y-128159610D01*
X146340001Y-127972307D01*
X146340000Y-146340000D01*
X132713701Y-146340000D01*
X133153405Y-146157869D01*
X133552222Y-145891388D01*
X133891388Y-145552222D01*
X134157869Y-145153405D01*
X134341424Y-144710263D01*
X134435000Y-144239827D01*
X134435000Y-143760173D01*
X134341424Y-143289737D01*
X134157869Y-142846595D01*
X133891388Y-142447778D01*
X133552222Y-142108612D01*
X133153405Y-141842131D01*
X133003099Y-141779872D01*
X139765000Y-141779872D01*
X139765000Y-142220128D01*
X139850890Y-142651925D01*
X140019369Y-143058669D01*
X140263962Y-143424729D01*
X140575271Y-143736038D01*
X140941331Y-143980631D01*
X141348075Y-144149110D01*
X141779872Y-144235000D01*
X142220128Y-144235000D01*
X142651925Y-144149110D01*
X143058669Y-143980631D01*
X143424729Y-143736038D01*
X143736038Y-143424729D01*
X143980631Y-143058669D01*
X144149110Y-142651925D01*
X144235000Y-142220128D01*
X144235000Y-141779872D01*
X144149110Y-141348075D01*
X143980631Y-140941331D01*
X143736038Y-140575271D01*
X143424729Y-140263962D01*
X143058669Y-140019369D01*
X142651925Y-139850890D01*
X142220128Y-139765000D01*
X141779872Y-139765000D01*
X141348075Y-139850890D01*
X140941331Y-140019369D01*
X140575271Y-140263962D01*
X140263962Y-140575271D01*
X140019369Y-140941331D01*
X139850890Y-141348075D01*
X139765000Y-141779872D01*
X133003099Y-141779872D01*
X132710263Y-141658576D01*
X132239827Y-141565000D01*
X131760173Y-141565000D01*
X131289737Y-141658576D01*
X130846595Y-141842131D01*
X130447778Y-142108612D01*
X130108612Y-142447778D01*
X129842131Y-142846595D01*
X129658576Y-143289737D01*
X129565000Y-143760173D01*
X129565000Y-144239827D01*
X129658576Y-144710263D01*
X129842131Y-145153405D01*
X130108612Y-145552222D01*
X130447778Y-145891388D01*
X130846595Y-146157869D01*
X131286299Y-146340000D01*
X120032419Y-146340000D01*
X120000000Y-146336807D01*
X119870617Y-146349550D01*
X119746207Y-146387290D01*
X119631550Y-146448575D01*
X119531052Y-146531052D01*
X119448575Y-146631550D01*
X119387290Y-146746207D01*
X119349550Y-146870617D01*
X119336807Y-147000000D01*
X119340000Y-147032418D01*
X119340001Y-149340000D01*
X80660000Y-149340000D01*
X80660000Y-147032418D01*
X80663193Y-147000000D01*
X80650450Y-146870617D01*
X80612710Y-146746207D01*
X80551425Y-146631550D01*
X80468948Y-146531052D01*
X80368450Y-146448575D01*
X80253793Y-146387290D01*
X80129383Y-146349550D01*
X80032419Y-146340000D01*
X80000000Y-146336807D01*
X79967581Y-146340000D01*
X53660000Y-146340000D01*
X53660000Y-141779872D01*
X55765000Y-141779872D01*
X55765000Y-142220128D01*
X55850890Y-142651925D01*
X56019369Y-143058669D01*
X56263962Y-143424729D01*
X56575271Y-143736038D01*
X56941331Y-143980631D01*
X57348075Y-144149110D01*
X57779872Y-144235000D01*
X58220128Y-144235000D01*
X58651925Y-144149110D01*
X59058669Y-143980631D01*
X59424729Y-143736038D01*
X59736038Y-143424729D01*
X59980631Y-143058669D01*
X60149110Y-142651925D01*
X60235000Y-142220128D01*
X60235000Y-141779872D01*
X60149110Y-141348075D01*
X59980631Y-140941331D01*
X59736038Y-140575271D01*
X59424729Y-140263962D01*
X59058669Y-140019369D01*
X58651925Y-139850890D01*
X58220128Y-139765000D01*
X57779872Y-139765000D01*
X57348075Y-139850890D01*
X56941331Y-140019369D01*
X56575271Y-140263962D01*
X56263962Y-140575271D01*
X56019369Y-140941331D01*
X55850890Y-141348075D01*
X55765000Y-141779872D01*
X53660000Y-141779872D01*
X53660000Y-128491653D01*
X55607952Y-128491653D01*
X55763962Y-128807214D01*
X56138745Y-128998020D01*
X56543551Y-129112044D01*
X56962824Y-129144902D01*
X57380451Y-129095334D01*
X57780383Y-128965243D01*
X58076038Y-128807214D01*
X58232048Y-128491653D01*
X56920000Y-127179605D01*
X55607952Y-128491653D01*
X53660000Y-128491653D01*
X53660000Y-127042824D01*
X54775098Y-127042824D01*
X54824666Y-127460451D01*
X54954757Y-127860383D01*
X55112786Y-128156038D01*
X55428347Y-128312048D01*
X56740395Y-127000000D01*
X57099605Y-127000000D01*
X58411653Y-128312048D01*
X58727214Y-128156038D01*
X58918020Y-127781255D01*
X59032044Y-127376449D01*
X59064902Y-126957176D01*
X59015334Y-126539549D01*
X58885243Y-126139617D01*
X58727214Y-125843962D01*
X58411653Y-125687952D01*
X57099605Y-127000000D01*
X56740395Y-127000000D01*
X55428347Y-125687952D01*
X55112786Y-125843962D01*
X54921980Y-126218745D01*
X54807956Y-126623551D01*
X54775098Y-127042824D01*
X53660000Y-127042824D01*
X53660000Y-125508347D01*
X55607952Y-125508347D01*
X56920000Y-126820395D01*
X58232048Y-125508347D01*
X58227922Y-125500000D01*
X59861928Y-125500000D01*
X59861928Y-128500000D01*
X59874188Y-128624482D01*
X59910498Y-128744180D01*
X59969463Y-128854494D01*
X60048815Y-128951185D01*
X60145506Y-129030537D01*
X60255820Y-129089502D01*
X60375518Y-129125812D01*
X60500000Y-129138072D01*
X63500000Y-129138072D01*
X63624482Y-129125812D01*
X63744180Y-129089502D01*
X63854494Y-129030537D01*
X63951185Y-128951185D01*
X64030537Y-128854494D01*
X64089502Y-128744180D01*
X64125812Y-128624482D01*
X64138072Y-128500000D01*
X64138072Y-125500000D01*
X64125812Y-125375518D01*
X64089502Y-125255820D01*
X64030537Y-125145506D01*
X63951185Y-125048815D01*
X63854494Y-124969463D01*
X63744180Y-124910498D01*
X63624482Y-124874188D01*
X63500000Y-124861928D01*
X60500000Y-124861928D01*
X60375518Y-124874188D01*
X60255820Y-124910498D01*
X60145506Y-124969463D01*
X60048815Y-125048815D01*
X59969463Y-125145506D01*
X59910498Y-125255820D01*
X59874188Y-125375518D01*
X59861928Y-125500000D01*
X58227922Y-125500000D01*
X58076038Y-125192786D01*
X57701255Y-125001980D01*
X57296449Y-124887956D01*
X56877176Y-124855098D01*
X56459549Y-124904666D01*
X56059617Y-125034757D01*
X55763962Y-125192786D01*
X55607952Y-125508347D01*
X53660000Y-125508347D01*
X53660000Y-123666607D01*
X84615000Y-123666607D01*
X84615000Y-124333393D01*
X84745083Y-124987368D01*
X85000252Y-125603399D01*
X85370698Y-126157812D01*
X85842188Y-126629302D01*
X86396601Y-126999748D01*
X87012632Y-127254917D01*
X87666607Y-127385000D01*
X88333393Y-127385000D01*
X88987368Y-127254917D01*
X89603399Y-126999748D01*
X90157812Y-126629302D01*
X90629302Y-126157812D01*
X90999748Y-125603399D01*
X91254917Y-124987368D01*
X91385000Y-124333393D01*
X91385000Y-123666607D01*
X91254917Y-123012632D01*
X90999748Y-122396601D01*
X90629302Y-121842188D01*
X90157812Y-121370698D01*
X89894861Y-121195000D01*
X89965866Y-121195000D01*
X90000000Y-121198362D01*
X90136244Y-121184943D01*
X90267252Y-121145202D01*
X90387989Y-121080667D01*
X90493817Y-120993817D01*
X90580667Y-120887989D01*
X90645202Y-120767252D01*
X90684943Y-120636244D01*
X90695000Y-120534135D01*
X90695000Y-120534134D01*
X90698362Y-120500000D01*
X90695000Y-120465865D01*
X90695000Y-118534135D01*
X90698362Y-118500000D01*
X90684943Y-118363756D01*
X90645202Y-118232748D01*
X90580667Y-118112011D01*
X90493817Y-118006183D01*
X90387989Y-117919333D01*
X90267252Y-117854798D01*
X90136244Y-117815057D01*
X90034135Y-117805000D01*
X90034134Y-117805000D01*
X90000000Y-117801638D01*
X89965865Y-117805000D01*
X86034135Y-117805000D01*
X86000000Y-117801638D01*
X85965866Y-117805000D01*
X85965865Y-117805000D01*
X85863756Y-117815057D01*
X85732748Y-117854798D01*
X85612011Y-117919333D01*
X85506183Y-118006183D01*
X85419333Y-118112011D01*
X85354798Y-118232748D01*
X85315057Y-118363756D01*
X85301638Y-118500000D01*
X85305001Y-118534144D01*
X85305000Y-120465865D01*
X85301638Y-120500000D01*
X85315057Y-120636244D01*
X85354798Y-120767252D01*
X85419333Y-120887989D01*
X85506183Y-120993817D01*
X85612011Y-121080667D01*
X85732748Y-121145202D01*
X85863756Y-121184943D01*
X86000000Y-121198362D01*
X86034134Y-121195000D01*
X86105139Y-121195000D01*
X85842188Y-121370698D01*
X85370698Y-121842188D01*
X85000252Y-122396601D01*
X84745083Y-123012632D01*
X84615000Y-123666607D01*
X53660000Y-123666607D01*
X53660000Y-120032418D01*
X53663193Y-120000000D01*
X53650450Y-119870617D01*
X53612710Y-119746207D01*
X53551425Y-119631550D01*
X53468948Y-119531052D01*
X53368450Y-119448575D01*
X53253793Y-119387290D01*
X53129383Y-119349550D01*
X53032419Y-119340000D01*
X53000000Y-119336807D01*
X52967581Y-119340000D01*
X50660000Y-119340000D01*
X50660000Y-114571653D01*
X59687952Y-114571653D01*
X59843962Y-114887214D01*
X60218745Y-115078020D01*
X60623551Y-115192044D01*
X61042824Y-115224902D01*
X61460451Y-115175334D01*
X61860383Y-115045243D01*
X62156038Y-114887214D01*
X62312048Y-114571653D01*
X61000000Y-113259605D01*
X59687952Y-114571653D01*
X50660000Y-114571653D01*
X50660000Y-113122824D01*
X58855098Y-113122824D01*
X58904666Y-113540451D01*
X59034757Y-113940383D01*
X59192786Y-114236038D01*
X59508347Y-114392048D01*
X60820395Y-113080000D01*
X61179605Y-113080000D01*
X62491653Y-114392048D01*
X62807214Y-114236038D01*
X62998020Y-113861255D01*
X63112044Y-113456449D01*
X63144902Y-113037176D01*
X63095334Y-112619549D01*
X62965243Y-112219617D01*
X62807214Y-111923962D01*
X62491653Y-111767952D01*
X61179605Y-113080000D01*
X60820395Y-113080000D01*
X59508347Y-111767952D01*
X59192786Y-111923962D01*
X59001980Y-112298745D01*
X58887956Y-112703551D01*
X58855098Y-113122824D01*
X50660000Y-113122824D01*
X50660000Y-111588347D01*
X59687952Y-111588347D01*
X61000000Y-112900395D01*
X62312048Y-111588347D01*
X62156038Y-111272786D01*
X61781255Y-111081980D01*
X61376449Y-110967956D01*
X60957176Y-110935098D01*
X60539549Y-110984666D01*
X60139617Y-111114757D01*
X59843962Y-111272786D01*
X59687952Y-111588347D01*
X50660000Y-111588347D01*
X50660000Y-106500000D01*
X58861928Y-106500000D01*
X58861928Y-109500000D01*
X58874188Y-109624482D01*
X58910498Y-109744180D01*
X58969463Y-109854494D01*
X59048815Y-109951185D01*
X59145506Y-110030537D01*
X59255820Y-110089502D01*
X59375518Y-110125812D01*
X59500000Y-110138072D01*
X62500000Y-110138072D01*
X62624482Y-110125812D01*
X62744180Y-110089502D01*
X62854494Y-110030537D01*
X62951185Y-109951185D01*
X63030537Y-109854494D01*
X63089502Y-109744180D01*
X63125812Y-109624482D01*
X63138072Y-109500000D01*
X63138072Y-106500000D01*
X63125812Y-106375518D01*
X63089502Y-106255820D01*
X63030537Y-106145506D01*
X62951185Y-106048815D01*
X62854494Y-105969463D01*
X62744180Y-105910498D01*
X62624482Y-105874188D01*
X62500000Y-105861928D01*
X59500000Y-105861928D01*
X59375518Y-105874188D01*
X59255820Y-105910498D01*
X59145506Y-105969463D01*
X59048815Y-106048815D01*
X58969463Y-106145506D01*
X58910498Y-106255820D01*
X58874188Y-106375518D01*
X58861928Y-106500000D01*
X50660000Y-106500000D01*
X50660000Y-101450000D01*
X55861928Y-101450000D01*
X55874188Y-101574482D01*
X55910498Y-101694180D01*
X55969463Y-101804494D01*
X56048815Y-101901185D01*
X56145506Y-101980537D01*
X56255820Y-102039502D01*
X56375518Y-102075812D01*
X56500000Y-102088072D01*
X57714250Y-102085000D01*
X57873000Y-101926250D01*
X57873000Y-99827000D01*
X58127000Y-99827000D01*
X58127000Y-101926250D01*
X58285750Y-102085000D01*
X59500000Y-102088072D01*
X59624482Y-102075812D01*
X59744180Y-102039502D01*
X59854494Y-101980537D01*
X59951185Y-101901185D01*
X60030537Y-101804494D01*
X60089502Y-101694180D01*
X60125812Y-101574482D01*
X60138072Y-101450000D01*
X60135000Y-99985750D01*
X59976250Y-99827000D01*
X58127000Y-99827000D01*
X57873000Y-99827000D01*
X56023750Y-99827000D01*
X55865000Y-99985750D01*
X55861928Y-101450000D01*
X50660000Y-101450000D01*
X50660000Y-97950000D01*
X55861928Y-97950000D01*
X55865000Y-99414250D01*
X56023750Y-99573000D01*
X57873000Y-99573000D01*
X57873000Y-97473750D01*
X58127000Y-97473750D01*
X58127000Y-99573000D01*
X59976250Y-99573000D01*
X60135000Y-99414250D01*
X60138072Y-97950000D01*
X60125812Y-97825518D01*
X60089502Y-97705820D01*
X60030537Y-97595506D01*
X59951185Y-97498815D01*
X59854494Y-97419463D01*
X59793633Y-97386931D01*
X60714250Y-97385000D01*
X60873000Y-97226250D01*
X60873000Y-95127000D01*
X61127000Y-95127000D01*
X61127000Y-97226250D01*
X61285750Y-97385000D01*
X61957345Y-97386409D01*
X61895506Y-97419463D01*
X61798815Y-97498815D01*
X61719463Y-97595506D01*
X61660498Y-97705820D01*
X61624188Y-97825518D01*
X61611928Y-97950000D01*
X61611928Y-101450000D01*
X61624188Y-101574482D01*
X61660498Y-101694180D01*
X61719463Y-101804494D01*
X61798815Y-101901185D01*
X61895506Y-101980537D01*
X62005820Y-102039502D01*
X62125518Y-102075812D01*
X62250000Y-102088072D01*
X65750000Y-102088072D01*
X65874482Y-102075812D01*
X65994180Y-102039502D01*
X66104494Y-101980537D01*
X66201185Y-101901185D01*
X66280537Y-101804494D01*
X66339502Y-101694180D01*
X66375812Y-101574482D01*
X66388072Y-101450000D01*
X66388072Y-97950000D01*
X66375812Y-97825518D01*
X66339502Y-97705820D01*
X66280537Y-97595506D01*
X66201185Y-97498815D01*
X66104494Y-97419463D01*
X65994180Y-97360498D01*
X65874482Y-97324188D01*
X65750000Y-97311928D01*
X63045767Y-97311928D01*
X63104494Y-97280537D01*
X63201185Y-97201185D01*
X63280537Y-97104494D01*
X63339502Y-96994180D01*
X63375812Y-96874482D01*
X63388072Y-96750000D01*
X63385000Y-95285750D01*
X63226250Y-95127000D01*
X61127000Y-95127000D01*
X60873000Y-95127000D01*
X58773750Y-95127000D01*
X58615000Y-95285750D01*
X58611928Y-96750000D01*
X58624188Y-96874482D01*
X58660498Y-96994180D01*
X58719463Y-97104494D01*
X58798815Y-97201185D01*
X58895506Y-97280537D01*
X58956805Y-97313302D01*
X58285750Y-97315000D01*
X58127000Y-97473750D01*
X57873000Y-97473750D01*
X57714250Y-97315000D01*
X56500000Y-97311928D01*
X56375518Y-97324188D01*
X56255820Y-97360498D01*
X56145506Y-97419463D01*
X56048815Y-97498815D01*
X55969463Y-97595506D01*
X55910498Y-97705820D01*
X55874188Y-97825518D01*
X55861928Y-97950000D01*
X50660000Y-97950000D01*
X50660000Y-93250000D01*
X58611928Y-93250000D01*
X58615000Y-94714250D01*
X58773750Y-94873000D01*
X60873000Y-94873000D01*
X60873000Y-92773750D01*
X61127000Y-92773750D01*
X61127000Y-94873000D01*
X63226250Y-94873000D01*
X63385000Y-94714250D01*
X63388072Y-93250000D01*
X63375812Y-93125518D01*
X63339502Y-93005820D01*
X63280537Y-92895506D01*
X63201185Y-92798815D01*
X63104494Y-92719463D01*
X62994180Y-92660498D01*
X62874482Y-92624188D01*
X62750000Y-92611928D01*
X61285750Y-92615000D01*
X61127000Y-92773750D01*
X60873000Y-92773750D01*
X60714250Y-92615000D01*
X59250000Y-92611928D01*
X59125518Y-92624188D01*
X59005820Y-92660498D01*
X58895506Y-92719463D01*
X58798815Y-92798815D01*
X58719463Y-92895506D01*
X58660498Y-93005820D01*
X58624188Y-93125518D01*
X58611928Y-93250000D01*
X50660000Y-93250000D01*
X50660000Y-86700000D01*
X55861928Y-86700000D01*
X55861928Y-88700000D01*
X55888599Y-88970799D01*
X55967589Y-89231192D01*
X56095860Y-89471171D01*
X56268485Y-89681515D01*
X56478829Y-89854140D01*
X56718808Y-89982411D01*
X56979201Y-90061401D01*
X57250000Y-90088072D01*
X58750000Y-90088072D01*
X59020799Y-90061401D01*
X59281192Y-89982411D01*
X59521171Y-89854140D01*
X59731515Y-89681515D01*
X59904140Y-89471171D01*
X60032411Y-89231192D01*
X60111401Y-88970799D01*
X60138072Y-88700000D01*
X60138072Y-86700000D01*
X60111401Y-86429201D01*
X60032411Y-86168808D01*
X59904140Y-85928829D01*
X59731515Y-85718485D01*
X59521171Y-85545860D01*
X59281192Y-85417589D01*
X59020799Y-85338599D01*
X58750000Y-85311928D01*
X57250000Y-85311928D01*
X56979201Y-85338599D01*
X56718808Y-85417589D01*
X56478829Y-85545860D01*
X56268485Y-85718485D01*
X56095860Y-85928829D01*
X55967589Y-86168808D01*
X55888599Y-86429201D01*
X55861928Y-86700000D01*
X50660000Y-86700000D01*
X50660000Y-82125000D01*
X58611928Y-82125000D01*
X58611928Y-83875000D01*
X58641001Y-84170186D01*
X58727104Y-84454028D01*
X58866927Y-84715618D01*
X59055097Y-84944903D01*
X59284382Y-85133073D01*
X59545972Y-85272896D01*
X59829814Y-85358999D01*
X60125000Y-85388072D01*
X61875000Y-85388072D01*
X61972131Y-85378506D01*
X61895506Y-85419463D01*
X61798815Y-85498815D01*
X61719463Y-85595506D01*
X61660498Y-85705820D01*
X61624188Y-85825518D01*
X61611928Y-85950000D01*
X61611928Y-89450000D01*
X61624188Y-89574482D01*
X61660498Y-89694180D01*
X61719463Y-89804494D01*
X61798815Y-89901185D01*
X61895506Y-89980537D01*
X62005820Y-90039502D01*
X62125518Y-90075812D01*
X62250000Y-90088072D01*
X65750000Y-90088072D01*
X65874482Y-90075812D01*
X65994180Y-90039502D01*
X66104494Y-89980537D01*
X66201185Y-89901185D01*
X66280537Y-89804494D01*
X66339502Y-89694180D01*
X66375812Y-89574482D01*
X66388072Y-89450000D01*
X66388072Y-87789721D01*
X96785000Y-87789721D01*
X96785000Y-88210279D01*
X96867047Y-88622756D01*
X97027988Y-89011302D01*
X97261637Y-89360983D01*
X97559017Y-89658363D01*
X97908698Y-89892012D01*
X98297244Y-90052953D01*
X98709721Y-90135000D01*
X99130279Y-90135000D01*
X99542756Y-90052953D01*
X99931302Y-89892012D01*
X100280983Y-89658363D01*
X100578363Y-89360983D01*
X100812012Y-89011302D01*
X100972953Y-88622756D01*
X101055000Y-88210279D01*
X101055000Y-87789721D01*
X100972953Y-87377244D01*
X100812012Y-86988698D01*
X100578363Y-86639017D01*
X100439346Y-86500000D01*
X101861928Y-86500000D01*
X101861928Y-89500000D01*
X101874188Y-89624482D01*
X101910498Y-89744180D01*
X101969463Y-89854494D01*
X102048815Y-89951185D01*
X102145506Y-90030537D01*
X102255820Y-90089502D01*
X102375518Y-90125812D01*
X102500000Y-90138072D01*
X105500000Y-90138072D01*
X105624482Y-90125812D01*
X105744180Y-90089502D01*
X105854494Y-90030537D01*
X105951185Y-89951185D01*
X106030537Y-89854494D01*
X106089502Y-89744180D01*
X106125812Y-89624482D01*
X106138072Y-89500000D01*
X106138072Y-86500000D01*
X106125812Y-86375518D01*
X106089502Y-86255820D01*
X106030537Y-86145506D01*
X105951185Y-86048815D01*
X105854494Y-85969463D01*
X105744180Y-85910498D01*
X105624482Y-85874188D01*
X105500000Y-85861928D01*
X102500000Y-85861928D01*
X102375518Y-85874188D01*
X102255820Y-85910498D01*
X102145506Y-85969463D01*
X102048815Y-86048815D01*
X101969463Y-86145506D01*
X101910498Y-86255820D01*
X101874188Y-86375518D01*
X101861928Y-86500000D01*
X100439346Y-86500000D01*
X100280983Y-86341637D01*
X99931302Y-86107988D01*
X99542756Y-85947047D01*
X99130279Y-85865000D01*
X98709721Y-85865000D01*
X98297244Y-85947047D01*
X97908698Y-86107988D01*
X97559017Y-86341637D01*
X97261637Y-86639017D01*
X97027988Y-86988698D01*
X96867047Y-87377244D01*
X96785000Y-87789721D01*
X66388072Y-87789721D01*
X66388072Y-85950000D01*
X66375812Y-85825518D01*
X66339502Y-85705820D01*
X66280537Y-85595506D01*
X66201185Y-85498815D01*
X66104494Y-85419463D01*
X65994180Y-85360498D01*
X65874482Y-85324188D01*
X65750000Y-85311928D01*
X62325357Y-85311928D01*
X62454028Y-85272896D01*
X62715618Y-85133073D01*
X62944903Y-84944903D01*
X63133073Y-84715618D01*
X63272896Y-84454028D01*
X63358999Y-84170186D01*
X63388072Y-83875000D01*
X63388072Y-82125000D01*
X63358999Y-81829814D01*
X63272896Y-81545972D01*
X63133073Y-81284382D01*
X62944903Y-81055097D01*
X62715618Y-80866927D01*
X62454028Y-80727104D01*
X62170186Y-80641001D01*
X61875000Y-80611928D01*
X60125000Y-80611928D01*
X59829814Y-80641001D01*
X59545972Y-80727104D01*
X59284382Y-80866927D01*
X59055097Y-81055097D01*
X58866927Y-81284382D01*
X58727104Y-81545972D01*
X58641001Y-81829814D01*
X58611928Y-82125000D01*
X50660000Y-82125000D01*
X50660000Y-80660000D01*
X52967581Y-80660000D01*
X53000000Y-80663193D01*
X53032419Y-80660000D01*
X53129383Y-80650450D01*
X53253793Y-80612710D01*
X53368450Y-80551425D01*
X53468948Y-80468948D01*
X53551425Y-80368450D01*
X53612710Y-80253793D01*
X53650450Y-80129383D01*
X53663193Y-80000000D01*
X53660000Y-79967581D01*
X53660000Y-57779872D01*
X55765000Y-57779872D01*
X55765000Y-58220128D01*
X55850890Y-58651925D01*
X56019369Y-59058669D01*
X56263962Y-59424729D01*
X56575271Y-59736038D01*
X56941331Y-59980631D01*
X57348075Y-60149110D01*
X57779872Y-60235000D01*
X58220128Y-60235000D01*
X58651925Y-60149110D01*
X59058669Y-59980631D01*
X59424729Y-59736038D01*
X59736038Y-59424729D01*
X59980631Y-59058669D01*
X60149110Y-58651925D01*
X60235000Y-58220128D01*
X60235000Y-57779872D01*
X60149110Y-57348075D01*
X59980631Y-56941331D01*
X59736038Y-56575271D01*
X59424729Y-56263962D01*
X59058669Y-56019369D01*
X59011909Y-56000000D01*
X65336807Y-56000000D01*
X65340001Y-56032429D01*
X65340000Y-82967581D01*
X65336807Y-83000000D01*
X65349550Y-83129383D01*
X65387290Y-83253793D01*
X65448575Y-83368450D01*
X65531052Y-83468948D01*
X65631550Y-83551425D01*
X65746207Y-83612710D01*
X65870617Y-83650450D01*
X66000000Y-83663193D01*
X66032419Y-83660000D01*
X111967581Y-83660000D01*
X112000000Y-83663193D01*
X112032419Y-83660000D01*
X112129383Y-83650450D01*
X112253793Y-83612710D01*
X112368450Y-83551425D01*
X112468948Y-83468948D01*
X112551425Y-83368450D01*
X112612710Y-83253793D01*
X112650450Y-83129383D01*
X112663193Y-83000000D01*
X112660000Y-82967581D01*
X112660000Y-81084580D01*
X137615000Y-81084580D01*
X137615000Y-83515419D01*
X137678447Y-84159609D01*
X137929186Y-84986185D01*
X138336364Y-85747963D01*
X138884334Y-86415666D01*
X139552037Y-86963636D01*
X140313814Y-87370814D01*
X141140390Y-87621553D01*
X142000000Y-87706217D01*
X142859609Y-87621553D01*
X143686185Y-87370814D01*
X144447963Y-86963636D01*
X145115666Y-86415666D01*
X145663636Y-85747963D01*
X146070814Y-84986186D01*
X146321553Y-84159610D01*
X146385000Y-83515420D01*
X146385000Y-81084581D01*
X146321553Y-80440391D01*
X146070814Y-79613815D01*
X145663636Y-78852037D01*
X145115666Y-78184334D01*
X144447963Y-77636364D01*
X143686186Y-77229186D01*
X142859610Y-76978447D01*
X142000000Y-76893783D01*
X141140391Y-76978447D01*
X140313815Y-77229186D01*
X139552038Y-77636364D01*
X138884335Y-78184334D01*
X138336365Y-78852037D01*
X137929186Y-79613814D01*
X137678447Y-80440390D01*
X137615000Y-81084580D01*
X112660000Y-81084580D01*
X112660000Y-64300032D01*
X116265000Y-64300032D01*
X116265000Y-65699969D01*
X116294445Y-65998930D01*
X116410810Y-66382529D01*
X116599774Y-66736056D01*
X116854077Y-67045924D01*
X117163945Y-67300227D01*
X117517472Y-67489191D01*
X117901071Y-67605555D01*
X118300000Y-67644846D01*
X118698930Y-67605555D01*
X119082529Y-67489191D01*
X119436056Y-67300227D01*
X119745924Y-67045924D01*
X120000227Y-66736056D01*
X120189191Y-66382529D01*
X120305555Y-65998929D01*
X120335000Y-65699968D01*
X120335000Y-64300032D01*
X120965000Y-64300032D01*
X120965000Y-65699969D01*
X120994445Y-65998930D01*
X121110810Y-66382529D01*
X121299774Y-66736056D01*
X121554077Y-67045924D01*
X121863945Y-67300227D01*
X122217472Y-67489191D01*
X122601071Y-67605555D01*
X123000000Y-67644846D01*
X123398930Y-67605555D01*
X123782529Y-67489191D01*
X124136056Y-67300227D01*
X124445924Y-67045924D01*
X124700227Y-66736056D01*
X124889191Y-66382529D01*
X125005555Y-65998929D01*
X125035000Y-65699968D01*
X125035000Y-64300032D01*
X125665000Y-64300032D01*
X125665000Y-65699969D01*
X125694445Y-65998930D01*
X125810810Y-66382529D01*
X125999774Y-66736056D01*
X126254077Y-67045924D01*
X126563945Y-67300227D01*
X126917472Y-67489191D01*
X127301071Y-67605555D01*
X127700000Y-67644846D01*
X128098930Y-67605555D01*
X128482529Y-67489191D01*
X128836056Y-67300227D01*
X129145924Y-67045924D01*
X129400227Y-66736056D01*
X129589191Y-66382529D01*
X129705555Y-65998929D01*
X129735000Y-65699968D01*
X129735000Y-65494767D01*
X129842131Y-65753405D01*
X130108612Y-66152222D01*
X130447778Y-66491388D01*
X130846595Y-66757869D01*
X131289737Y-66941424D01*
X131760173Y-67035000D01*
X132239827Y-67035000D01*
X132710263Y-66941424D01*
X133153405Y-66757869D01*
X133552222Y-66491388D01*
X133891388Y-66152222D01*
X134157869Y-65753405D01*
X134341424Y-65310263D01*
X134435000Y-64839827D01*
X134435000Y-64360173D01*
X134341424Y-63889737D01*
X134157869Y-63446595D01*
X133891388Y-63047778D01*
X133552222Y-62708612D01*
X133153405Y-62442131D01*
X132710263Y-62258576D01*
X132239827Y-62165000D01*
X131760173Y-62165000D01*
X131289737Y-62258576D01*
X130846595Y-62442131D01*
X130447778Y-62708612D01*
X130108612Y-63047778D01*
X129842131Y-63446595D01*
X129666199Y-63871332D01*
X129589191Y-63617471D01*
X129400227Y-63263944D01*
X129145924Y-62954076D01*
X128836056Y-62699773D01*
X128482528Y-62510809D01*
X128098929Y-62394445D01*
X127700000Y-62355154D01*
X127301070Y-62394445D01*
X126917471Y-62510809D01*
X126563944Y-62699773D01*
X126254076Y-62954076D01*
X125999773Y-63263944D01*
X125810809Y-63617472D01*
X125694445Y-64001071D01*
X125665000Y-64300032D01*
X125035000Y-64300032D01*
X125035000Y-64300031D01*
X125005555Y-64001070D01*
X124889191Y-63617471D01*
X124700227Y-63263944D01*
X124445924Y-62954076D01*
X124136056Y-62699773D01*
X123782528Y-62510809D01*
X123398929Y-62394445D01*
X123000000Y-62355154D01*
X122601070Y-62394445D01*
X122217471Y-62510809D01*
X121863944Y-62699773D01*
X121554076Y-62954076D01*
X121299773Y-63263944D01*
X121110809Y-63617472D01*
X120994445Y-64001071D01*
X120965000Y-64300032D01*
X120335000Y-64300032D01*
X120335000Y-64300031D01*
X120305555Y-64001070D01*
X120189191Y-63617471D01*
X120000227Y-63263944D01*
X119745924Y-62954076D01*
X119436056Y-62699773D01*
X119082528Y-62510809D01*
X118698929Y-62394445D01*
X118300000Y-62355154D01*
X117901070Y-62394445D01*
X117517471Y-62510809D01*
X117163944Y-62699773D01*
X116854076Y-62954076D01*
X116599773Y-63263944D01*
X116410809Y-63617472D01*
X116294445Y-64001071D01*
X116265000Y-64300032D01*
X112660000Y-64300032D01*
X112660000Y-58354872D01*
X136805000Y-58354872D01*
X136805000Y-58795128D01*
X136890890Y-59226925D01*
X137059369Y-59633669D01*
X137303962Y-59999729D01*
X137615271Y-60311038D01*
X137981331Y-60555631D01*
X138388075Y-60724110D01*
X138819872Y-60810000D01*
X139260128Y-60810000D01*
X139691925Y-60724110D01*
X140098669Y-60555631D01*
X140464729Y-60311038D01*
X140776038Y-59999729D01*
X141020631Y-59633669D01*
X141189110Y-59226925D01*
X141275000Y-58795128D01*
X141275000Y-58354872D01*
X141189110Y-57923075D01*
X141020631Y-57516331D01*
X140776038Y-57150271D01*
X140464729Y-56838962D01*
X140098669Y-56594369D01*
X139691925Y-56425890D01*
X139260128Y-56340000D01*
X138819872Y-56340000D01*
X138388075Y-56425890D01*
X137981331Y-56594369D01*
X137615271Y-56838962D01*
X137303962Y-57150271D01*
X137059369Y-57516331D01*
X136890890Y-57923075D01*
X136805000Y-58354872D01*
X112660000Y-58354872D01*
X112660000Y-56032419D01*
X112663193Y-56000000D01*
X112650450Y-55870617D01*
X112612710Y-55746207D01*
X112551425Y-55631550D01*
X112468948Y-55531052D01*
X112368450Y-55448575D01*
X112253793Y-55387290D01*
X112129383Y-55349550D01*
X112032419Y-55340000D01*
X112000000Y-55336807D01*
X111967581Y-55340000D01*
X66032419Y-55340000D01*
X66000000Y-55336807D01*
X65967581Y-55340000D01*
X65870617Y-55349550D01*
X65746207Y-55387290D01*
X65631550Y-55448575D01*
X65531052Y-55531052D01*
X65448575Y-55631550D01*
X65387290Y-55746207D01*
X65349550Y-55870617D01*
X65336807Y-56000000D01*
X59011909Y-56000000D01*
X58651925Y-55850890D01*
X58220128Y-55765000D01*
X57779872Y-55765000D01*
X57348075Y-55850890D01*
X56941331Y-56019369D01*
X56575271Y-56263962D01*
X56263962Y-56575271D01*
X56019369Y-56941331D01*
X55850890Y-57348075D01*
X55765000Y-57779872D01*
X53660000Y-57779872D01*
X53660000Y-53660000D01*
X79967581Y-53660000D01*
X80000000Y-53663193D01*
X80032419Y-53660000D01*
X80129383Y-53650450D01*
X80253793Y-53612710D01*
X80368450Y-53551425D01*
X80468948Y-53468948D01*
X80551425Y-53368450D01*
X80612710Y-53253793D01*
X80650450Y-53129383D01*
X80663193Y-53000000D01*
X80660000Y-52967581D01*
X80660000Y-50660000D01*
X119340001Y-50660000D01*
X119340000Y-52967580D01*
G37*
X119340000Y-52967580D02*
X119336807Y-53000000D01*
X119349550Y-53129383D01*
X119387290Y-53253793D01*
X119448575Y-53368450D01*
X119531052Y-53468948D01*
X119631550Y-53551425D01*
X119746207Y-53612710D01*
X119870617Y-53650450D01*
X120000000Y-53663193D01*
X120032419Y-53660000D01*
X146340000Y-53660000D01*
X146340001Y-79967571D01*
X146336807Y-80000000D01*
X146349550Y-80129383D01*
X146387290Y-80253793D01*
X146448575Y-80368450D01*
X146531052Y-80468948D01*
X146631550Y-80551425D01*
X146746207Y-80612710D01*
X146870617Y-80650450D01*
X146967581Y-80660000D01*
X147000000Y-80663193D01*
X147032419Y-80660000D01*
X149340000Y-80660000D01*
X149340001Y-119340000D01*
X147032419Y-119340000D01*
X147000000Y-119336807D01*
X146967581Y-119340000D01*
X146870617Y-119349550D01*
X146746207Y-119387290D01*
X146631550Y-119448575D01*
X146531052Y-119531052D01*
X146448575Y-119631550D01*
X146387290Y-119746207D01*
X146349550Y-119870617D01*
X146336807Y-120000000D01*
X146340001Y-120032429D01*
X146340001Y-124627695D01*
X146321553Y-124440391D01*
X146070814Y-123613815D01*
X145663636Y-122852037D01*
X145115666Y-122184334D01*
X144447963Y-121636364D01*
X143686186Y-121229186D01*
X142859610Y-120978447D01*
X142000000Y-120893783D01*
X141140391Y-120978447D01*
X140313815Y-121229186D01*
X139552038Y-121636364D01*
X138884335Y-122184334D01*
X138336365Y-122852037D01*
X137929186Y-123613814D01*
X137678447Y-124440390D01*
X137615000Y-125084580D01*
X137615000Y-127515419D01*
X137678447Y-128159609D01*
X137929186Y-128986185D01*
X138336364Y-129747963D01*
X138884334Y-130415666D01*
X139552037Y-130963636D01*
X140313814Y-131370814D01*
X141140390Y-131621553D01*
X142000000Y-131706217D01*
X142859609Y-131621553D01*
X143686185Y-131370814D01*
X144447963Y-130963636D01*
X145115666Y-130415666D01*
X145663636Y-129747963D01*
X146070814Y-128986186D01*
X146321553Y-128159610D01*
X146340001Y-127972307D01*
X146340000Y-146340000D01*
X132713701Y-146340000D01*
X133153405Y-146157869D01*
X133552222Y-145891388D01*
X133891388Y-145552222D01*
X134157869Y-145153405D01*
X134341424Y-144710263D01*
X134435000Y-144239827D01*
X134435000Y-143760173D01*
X134341424Y-143289737D01*
X134157869Y-142846595D01*
X133891388Y-142447778D01*
X133552222Y-142108612D01*
X133153405Y-141842131D01*
X133003099Y-141779872D01*
X139765000Y-141779872D01*
X139765000Y-142220128D01*
X139850890Y-142651925D01*
X140019369Y-143058669D01*
X140263962Y-143424729D01*
X140575271Y-143736038D01*
X140941331Y-143980631D01*
X141348075Y-144149110D01*
X141779872Y-144235000D01*
X142220128Y-144235000D01*
X142651925Y-144149110D01*
X143058669Y-143980631D01*
X143424729Y-143736038D01*
X143736038Y-143424729D01*
X143980631Y-143058669D01*
X144149110Y-142651925D01*
X144235000Y-142220128D01*
X144235000Y-141779872D01*
X144149110Y-141348075D01*
X143980631Y-140941331D01*
X143736038Y-140575271D01*
X143424729Y-140263962D01*
X143058669Y-140019369D01*
X142651925Y-139850890D01*
X142220128Y-139765000D01*
X141779872Y-139765000D01*
X141348075Y-139850890D01*
X140941331Y-140019369D01*
X140575271Y-140263962D01*
X140263962Y-140575271D01*
X140019369Y-140941331D01*
X139850890Y-141348075D01*
X139765000Y-141779872D01*
X133003099Y-141779872D01*
X132710263Y-141658576D01*
X132239827Y-141565000D01*
X131760173Y-141565000D01*
X131289737Y-141658576D01*
X130846595Y-141842131D01*
X130447778Y-142108612D01*
X130108612Y-142447778D01*
X129842131Y-142846595D01*
X129658576Y-143289737D01*
X129565000Y-143760173D01*
X129565000Y-144239827D01*
X129658576Y-144710263D01*
X129842131Y-145153405D01*
X130108612Y-145552222D01*
X130447778Y-145891388D01*
X130846595Y-146157869D01*
X131286299Y-146340000D01*
X120032419Y-146340000D01*
X120000000Y-146336807D01*
X119870617Y-146349550D01*
X119746207Y-146387290D01*
X119631550Y-146448575D01*
X119531052Y-146531052D01*
X119448575Y-146631550D01*
X119387290Y-146746207D01*
X119349550Y-146870617D01*
X119336807Y-147000000D01*
X119340000Y-147032418D01*
X119340001Y-149340000D01*
X80660000Y-149340000D01*
X80660000Y-147032418D01*
X80663193Y-147000000D01*
X80650450Y-146870617D01*
X80612710Y-146746207D01*
X80551425Y-146631550D01*
X80468948Y-146531052D01*
X80368450Y-146448575D01*
X80253793Y-146387290D01*
X80129383Y-146349550D01*
X80032419Y-146340000D01*
X80000000Y-146336807D01*
X79967581Y-146340000D01*
X53660000Y-146340000D01*
X53660000Y-141779872D01*
X55765000Y-141779872D01*
X55765000Y-142220128D01*
X55850890Y-142651925D01*
X56019369Y-143058669D01*
X56263962Y-143424729D01*
X56575271Y-143736038D01*
X56941331Y-143980631D01*
X57348075Y-144149110D01*
X57779872Y-144235000D01*
X58220128Y-144235000D01*
X58651925Y-144149110D01*
X59058669Y-143980631D01*
X59424729Y-143736038D01*
X59736038Y-143424729D01*
X59980631Y-143058669D01*
X60149110Y-142651925D01*
X60235000Y-142220128D01*
X60235000Y-141779872D01*
X60149110Y-141348075D01*
X59980631Y-140941331D01*
X59736038Y-140575271D01*
X59424729Y-140263962D01*
X59058669Y-140019369D01*
X58651925Y-139850890D01*
X58220128Y-139765000D01*
X57779872Y-139765000D01*
X57348075Y-139850890D01*
X56941331Y-140019369D01*
X56575271Y-140263962D01*
X56263962Y-140575271D01*
X56019369Y-140941331D01*
X55850890Y-141348075D01*
X55765000Y-141779872D01*
X53660000Y-141779872D01*
X53660000Y-128491653D01*
X55607952Y-128491653D01*
X55763962Y-128807214D01*
X56138745Y-128998020D01*
X56543551Y-129112044D01*
X56962824Y-129144902D01*
X57380451Y-129095334D01*
X57780383Y-128965243D01*
X58076038Y-128807214D01*
X58232048Y-128491653D01*
X56920000Y-127179605D01*
X55607952Y-128491653D01*
X53660000Y-128491653D01*
X53660000Y-127042824D01*
X54775098Y-127042824D01*
X54824666Y-127460451D01*
X54954757Y-127860383D01*
X55112786Y-128156038D01*
X55428347Y-128312048D01*
X56740395Y-127000000D01*
X57099605Y-127000000D01*
X58411653Y-128312048D01*
X58727214Y-128156038D01*
X58918020Y-127781255D01*
X59032044Y-127376449D01*
X59064902Y-126957176D01*
X59015334Y-126539549D01*
X58885243Y-126139617D01*
X58727214Y-125843962D01*
X58411653Y-125687952D01*
X57099605Y-127000000D01*
X56740395Y-127000000D01*
X55428347Y-125687952D01*
X55112786Y-125843962D01*
X54921980Y-126218745D01*
X54807956Y-126623551D01*
X54775098Y-127042824D01*
X53660000Y-127042824D01*
X53660000Y-125508347D01*
X55607952Y-125508347D01*
X56920000Y-126820395D01*
X58232048Y-125508347D01*
X58227922Y-125500000D01*
X59861928Y-125500000D01*
X59861928Y-128500000D01*
X59874188Y-128624482D01*
X59910498Y-128744180D01*
X59969463Y-128854494D01*
X60048815Y-128951185D01*
X60145506Y-129030537D01*
X60255820Y-129089502D01*
X60375518Y-129125812D01*
X60500000Y-129138072D01*
X63500000Y-129138072D01*
X63624482Y-129125812D01*
X63744180Y-129089502D01*
X63854494Y-129030537D01*
X63951185Y-128951185D01*
X64030537Y-128854494D01*
X64089502Y-128744180D01*
X64125812Y-128624482D01*
X64138072Y-128500000D01*
X64138072Y-125500000D01*
X64125812Y-125375518D01*
X64089502Y-125255820D01*
X64030537Y-125145506D01*
X63951185Y-125048815D01*
X63854494Y-124969463D01*
X63744180Y-124910498D01*
X63624482Y-124874188D01*
X63500000Y-124861928D01*
X60500000Y-124861928D01*
X60375518Y-124874188D01*
X60255820Y-124910498D01*
X60145506Y-124969463D01*
X60048815Y-125048815D01*
X59969463Y-125145506D01*
X59910498Y-125255820D01*
X59874188Y-125375518D01*
X59861928Y-125500000D01*
X58227922Y-125500000D01*
X58076038Y-125192786D01*
X57701255Y-125001980D01*
X57296449Y-124887956D01*
X56877176Y-124855098D01*
X56459549Y-124904666D01*
X56059617Y-125034757D01*
X55763962Y-125192786D01*
X55607952Y-125508347D01*
X53660000Y-125508347D01*
X53660000Y-123666607D01*
X84615000Y-123666607D01*
X84615000Y-124333393D01*
X84745083Y-124987368D01*
X85000252Y-125603399D01*
X85370698Y-126157812D01*
X85842188Y-126629302D01*
X86396601Y-126999748D01*
X87012632Y-127254917D01*
X87666607Y-127385000D01*
X88333393Y-127385000D01*
X88987368Y-127254917D01*
X89603399Y-126999748D01*
X90157812Y-126629302D01*
X90629302Y-126157812D01*
X90999748Y-125603399D01*
X91254917Y-124987368D01*
X91385000Y-124333393D01*
X91385000Y-123666607D01*
X91254917Y-123012632D01*
X90999748Y-122396601D01*
X90629302Y-121842188D01*
X90157812Y-121370698D01*
X89894861Y-121195000D01*
X89965866Y-121195000D01*
X90000000Y-121198362D01*
X90136244Y-121184943D01*
X90267252Y-121145202D01*
X90387989Y-121080667D01*
X90493817Y-120993817D01*
X90580667Y-120887989D01*
X90645202Y-120767252D01*
X90684943Y-120636244D01*
X90695000Y-120534135D01*
X90695000Y-120534134D01*
X90698362Y-120500000D01*
X90695000Y-120465865D01*
X90695000Y-118534135D01*
X90698362Y-118500000D01*
X90684943Y-118363756D01*
X90645202Y-118232748D01*
X90580667Y-118112011D01*
X90493817Y-118006183D01*
X90387989Y-117919333D01*
X90267252Y-117854798D01*
X90136244Y-117815057D01*
X90034135Y-117805000D01*
X90034134Y-117805000D01*
X90000000Y-117801638D01*
X89965865Y-117805000D01*
X86034135Y-117805000D01*
X86000000Y-117801638D01*
X85965866Y-117805000D01*
X85965865Y-117805000D01*
X85863756Y-117815057D01*
X85732748Y-117854798D01*
X85612011Y-117919333D01*
X85506183Y-118006183D01*
X85419333Y-118112011D01*
X85354798Y-118232748D01*
X85315057Y-118363756D01*
X85301638Y-118500000D01*
X85305001Y-118534144D01*
X85305000Y-120465865D01*
X85301638Y-120500000D01*
X85315057Y-120636244D01*
X85354798Y-120767252D01*
X85419333Y-120887989D01*
X85506183Y-120993817D01*
X85612011Y-121080667D01*
X85732748Y-121145202D01*
X85863756Y-121184943D01*
X86000000Y-121198362D01*
X86034134Y-121195000D01*
X86105139Y-121195000D01*
X85842188Y-121370698D01*
X85370698Y-121842188D01*
X85000252Y-122396601D01*
X84745083Y-123012632D01*
X84615000Y-123666607D01*
X53660000Y-123666607D01*
X53660000Y-120032418D01*
X53663193Y-120000000D01*
X53650450Y-119870617D01*
X53612710Y-119746207D01*
X53551425Y-119631550D01*
X53468948Y-119531052D01*
X53368450Y-119448575D01*
X53253793Y-119387290D01*
X53129383Y-119349550D01*
X53032419Y-119340000D01*
X53000000Y-119336807D01*
X52967581Y-119340000D01*
X50660000Y-119340000D01*
X50660000Y-114571653D01*
X59687952Y-114571653D01*
X59843962Y-114887214D01*
X60218745Y-115078020D01*
X60623551Y-115192044D01*
X61042824Y-115224902D01*
X61460451Y-115175334D01*
X61860383Y-115045243D01*
X62156038Y-114887214D01*
X62312048Y-114571653D01*
X61000000Y-113259605D01*
X59687952Y-114571653D01*
X50660000Y-114571653D01*
X50660000Y-113122824D01*
X58855098Y-113122824D01*
X58904666Y-113540451D01*
X59034757Y-113940383D01*
X59192786Y-114236038D01*
X59508347Y-114392048D01*
X60820395Y-113080000D01*
X61179605Y-113080000D01*
X62491653Y-114392048D01*
X62807214Y-114236038D01*
X62998020Y-113861255D01*
X63112044Y-113456449D01*
X63144902Y-113037176D01*
X63095334Y-112619549D01*
X62965243Y-112219617D01*
X62807214Y-111923962D01*
X62491653Y-111767952D01*
X61179605Y-113080000D01*
X60820395Y-113080000D01*
X59508347Y-111767952D01*
X59192786Y-111923962D01*
X59001980Y-112298745D01*
X58887956Y-112703551D01*
X58855098Y-113122824D01*
X50660000Y-113122824D01*
X50660000Y-111588347D01*
X59687952Y-111588347D01*
X61000000Y-112900395D01*
X62312048Y-111588347D01*
X62156038Y-111272786D01*
X61781255Y-111081980D01*
X61376449Y-110967956D01*
X60957176Y-110935098D01*
X60539549Y-110984666D01*
X60139617Y-111114757D01*
X59843962Y-111272786D01*
X59687952Y-111588347D01*
X50660000Y-111588347D01*
X50660000Y-106500000D01*
X58861928Y-106500000D01*
X58861928Y-109500000D01*
X58874188Y-109624482D01*
X58910498Y-109744180D01*
X58969463Y-109854494D01*
X59048815Y-109951185D01*
X59145506Y-110030537D01*
X59255820Y-110089502D01*
X59375518Y-110125812D01*
X59500000Y-110138072D01*
X62500000Y-110138072D01*
X62624482Y-110125812D01*
X62744180Y-110089502D01*
X62854494Y-110030537D01*
X62951185Y-109951185D01*
X63030537Y-109854494D01*
X63089502Y-109744180D01*
X63125812Y-109624482D01*
X63138072Y-109500000D01*
X63138072Y-106500000D01*
X63125812Y-106375518D01*
X63089502Y-106255820D01*
X63030537Y-106145506D01*
X62951185Y-106048815D01*
X62854494Y-105969463D01*
X62744180Y-105910498D01*
X62624482Y-105874188D01*
X62500000Y-105861928D01*
X59500000Y-105861928D01*
X59375518Y-105874188D01*
X59255820Y-105910498D01*
X59145506Y-105969463D01*
X59048815Y-106048815D01*
X58969463Y-106145506D01*
X58910498Y-106255820D01*
X58874188Y-106375518D01*
X58861928Y-106500000D01*
X50660000Y-106500000D01*
X50660000Y-101450000D01*
X55861928Y-101450000D01*
X55874188Y-101574482D01*
X55910498Y-101694180D01*
X55969463Y-101804494D01*
X56048815Y-101901185D01*
X56145506Y-101980537D01*
X56255820Y-102039502D01*
X56375518Y-102075812D01*
X56500000Y-102088072D01*
X57714250Y-102085000D01*
X57873000Y-101926250D01*
X57873000Y-99827000D01*
X58127000Y-99827000D01*
X58127000Y-101926250D01*
X58285750Y-102085000D01*
X59500000Y-102088072D01*
X59624482Y-102075812D01*
X59744180Y-102039502D01*
X59854494Y-101980537D01*
X59951185Y-101901185D01*
X60030537Y-101804494D01*
X60089502Y-101694180D01*
X60125812Y-101574482D01*
X60138072Y-101450000D01*
X60135000Y-99985750D01*
X59976250Y-99827000D01*
X58127000Y-99827000D01*
X57873000Y-99827000D01*
X56023750Y-99827000D01*
X55865000Y-99985750D01*
X55861928Y-101450000D01*
X50660000Y-101450000D01*
X50660000Y-97950000D01*
X55861928Y-97950000D01*
X55865000Y-99414250D01*
X56023750Y-99573000D01*
X57873000Y-99573000D01*
X57873000Y-97473750D01*
X58127000Y-97473750D01*
X58127000Y-99573000D01*
X59976250Y-99573000D01*
X60135000Y-99414250D01*
X60138072Y-97950000D01*
X60125812Y-97825518D01*
X60089502Y-97705820D01*
X60030537Y-97595506D01*
X59951185Y-97498815D01*
X59854494Y-97419463D01*
X59793633Y-97386931D01*
X60714250Y-97385000D01*
X60873000Y-97226250D01*
X60873000Y-95127000D01*
X61127000Y-95127000D01*
X61127000Y-97226250D01*
X61285750Y-97385000D01*
X61957345Y-97386409D01*
X61895506Y-97419463D01*
X61798815Y-97498815D01*
X61719463Y-97595506D01*
X61660498Y-97705820D01*
X61624188Y-97825518D01*
X61611928Y-97950000D01*
X61611928Y-101450000D01*
X61624188Y-101574482D01*
X61660498Y-101694180D01*
X61719463Y-101804494D01*
X61798815Y-101901185D01*
X61895506Y-101980537D01*
X62005820Y-102039502D01*
X62125518Y-102075812D01*
X62250000Y-102088072D01*
X65750000Y-102088072D01*
X65874482Y-102075812D01*
X65994180Y-102039502D01*
X66104494Y-101980537D01*
X66201185Y-101901185D01*
X66280537Y-101804494D01*
X66339502Y-101694180D01*
X66375812Y-101574482D01*
X66388072Y-101450000D01*
X66388072Y-97950000D01*
X66375812Y-97825518D01*
X66339502Y-97705820D01*
X66280537Y-97595506D01*
X66201185Y-97498815D01*
X66104494Y-97419463D01*
X65994180Y-97360498D01*
X65874482Y-97324188D01*
X65750000Y-97311928D01*
X63045767Y-97311928D01*
X63104494Y-97280537D01*
X63201185Y-97201185D01*
X63280537Y-97104494D01*
X63339502Y-96994180D01*
X63375812Y-96874482D01*
X63388072Y-96750000D01*
X63385000Y-95285750D01*
X63226250Y-95127000D01*
X61127000Y-95127000D01*
X60873000Y-95127000D01*
X58773750Y-95127000D01*
X58615000Y-95285750D01*
X58611928Y-96750000D01*
X58624188Y-96874482D01*
X58660498Y-96994180D01*
X58719463Y-97104494D01*
X58798815Y-97201185D01*
X58895506Y-97280537D01*
X58956805Y-97313302D01*
X58285750Y-97315000D01*
X58127000Y-97473750D01*
X57873000Y-97473750D01*
X57714250Y-97315000D01*
X56500000Y-97311928D01*
X56375518Y-97324188D01*
X56255820Y-97360498D01*
X56145506Y-97419463D01*
X56048815Y-97498815D01*
X55969463Y-97595506D01*
X55910498Y-97705820D01*
X55874188Y-97825518D01*
X55861928Y-97950000D01*
X50660000Y-97950000D01*
X50660000Y-93250000D01*
X58611928Y-93250000D01*
X58615000Y-94714250D01*
X58773750Y-94873000D01*
X60873000Y-94873000D01*
X60873000Y-92773750D01*
X61127000Y-92773750D01*
X61127000Y-94873000D01*
X63226250Y-94873000D01*
X63385000Y-94714250D01*
X63388072Y-93250000D01*
X63375812Y-93125518D01*
X63339502Y-93005820D01*
X63280537Y-92895506D01*
X63201185Y-92798815D01*
X63104494Y-92719463D01*
X62994180Y-92660498D01*
X62874482Y-92624188D01*
X62750000Y-92611928D01*
X61285750Y-92615000D01*
X61127000Y-92773750D01*
X60873000Y-92773750D01*
X60714250Y-92615000D01*
X59250000Y-92611928D01*
X59125518Y-92624188D01*
X59005820Y-92660498D01*
X58895506Y-92719463D01*
X58798815Y-92798815D01*
X58719463Y-92895506D01*
X58660498Y-93005820D01*
X58624188Y-93125518D01*
X58611928Y-93250000D01*
X50660000Y-93250000D01*
X50660000Y-86700000D01*
X55861928Y-86700000D01*
X55861928Y-88700000D01*
X55888599Y-88970799D01*
X55967589Y-89231192D01*
X56095860Y-89471171D01*
X56268485Y-89681515D01*
X56478829Y-89854140D01*
X56718808Y-89982411D01*
X56979201Y-90061401D01*
X57250000Y-90088072D01*
X58750000Y-90088072D01*
X59020799Y-90061401D01*
X59281192Y-89982411D01*
X59521171Y-89854140D01*
X59731515Y-89681515D01*
X59904140Y-89471171D01*
X60032411Y-89231192D01*
X60111401Y-88970799D01*
X60138072Y-88700000D01*
X60138072Y-86700000D01*
X60111401Y-86429201D01*
X60032411Y-86168808D01*
X59904140Y-85928829D01*
X59731515Y-85718485D01*
X59521171Y-85545860D01*
X59281192Y-85417589D01*
X59020799Y-85338599D01*
X58750000Y-85311928D01*
X57250000Y-85311928D01*
X56979201Y-85338599D01*
X56718808Y-85417589D01*
X56478829Y-85545860D01*
X56268485Y-85718485D01*
X56095860Y-85928829D01*
X55967589Y-86168808D01*
X55888599Y-86429201D01*
X55861928Y-86700000D01*
X50660000Y-86700000D01*
X50660000Y-82125000D01*
X58611928Y-82125000D01*
X58611928Y-83875000D01*
X58641001Y-84170186D01*
X58727104Y-84454028D01*
X58866927Y-84715618D01*
X59055097Y-84944903D01*
X59284382Y-85133073D01*
X59545972Y-85272896D01*
X59829814Y-85358999D01*
X60125000Y-85388072D01*
X61875000Y-85388072D01*
X61972131Y-85378506D01*
X61895506Y-85419463D01*
X61798815Y-85498815D01*
X61719463Y-85595506D01*
X61660498Y-85705820D01*
X61624188Y-85825518D01*
X61611928Y-85950000D01*
X61611928Y-89450000D01*
X61624188Y-89574482D01*
X61660498Y-89694180D01*
X61719463Y-89804494D01*
X61798815Y-89901185D01*
X61895506Y-89980537D01*
X62005820Y-90039502D01*
X62125518Y-90075812D01*
X62250000Y-90088072D01*
X65750000Y-90088072D01*
X65874482Y-90075812D01*
X65994180Y-90039502D01*
X66104494Y-89980537D01*
X66201185Y-89901185D01*
X66280537Y-89804494D01*
X66339502Y-89694180D01*
X66375812Y-89574482D01*
X66388072Y-89450000D01*
X66388072Y-87789721D01*
X96785000Y-87789721D01*
X96785000Y-88210279D01*
X96867047Y-88622756D01*
X97027988Y-89011302D01*
X97261637Y-89360983D01*
X97559017Y-89658363D01*
X97908698Y-89892012D01*
X98297244Y-90052953D01*
X98709721Y-90135000D01*
X99130279Y-90135000D01*
X99542756Y-90052953D01*
X99931302Y-89892012D01*
X100280983Y-89658363D01*
X100578363Y-89360983D01*
X100812012Y-89011302D01*
X100972953Y-88622756D01*
X101055000Y-88210279D01*
X101055000Y-87789721D01*
X100972953Y-87377244D01*
X100812012Y-86988698D01*
X100578363Y-86639017D01*
X100439346Y-86500000D01*
X101861928Y-86500000D01*
X101861928Y-89500000D01*
X101874188Y-89624482D01*
X101910498Y-89744180D01*
X101969463Y-89854494D01*
X102048815Y-89951185D01*
X102145506Y-90030537D01*
X102255820Y-90089502D01*
X102375518Y-90125812D01*
X102500000Y-90138072D01*
X105500000Y-90138072D01*
X105624482Y-90125812D01*
X105744180Y-90089502D01*
X105854494Y-90030537D01*
X105951185Y-89951185D01*
X106030537Y-89854494D01*
X106089502Y-89744180D01*
X106125812Y-89624482D01*
X106138072Y-89500000D01*
X106138072Y-86500000D01*
X106125812Y-86375518D01*
X106089502Y-86255820D01*
X106030537Y-86145506D01*
X105951185Y-86048815D01*
X105854494Y-85969463D01*
X105744180Y-85910498D01*
X105624482Y-85874188D01*
X105500000Y-85861928D01*
X102500000Y-85861928D01*
X102375518Y-85874188D01*
X102255820Y-85910498D01*
X102145506Y-85969463D01*
X102048815Y-86048815D01*
X101969463Y-86145506D01*
X101910498Y-86255820D01*
X101874188Y-86375518D01*
X101861928Y-86500000D01*
X100439346Y-86500000D01*
X100280983Y-86341637D01*
X99931302Y-86107988D01*
X99542756Y-85947047D01*
X99130279Y-85865000D01*
X98709721Y-85865000D01*
X98297244Y-85947047D01*
X97908698Y-86107988D01*
X97559017Y-86341637D01*
X97261637Y-86639017D01*
X97027988Y-86988698D01*
X96867047Y-87377244D01*
X96785000Y-87789721D01*
X66388072Y-87789721D01*
X66388072Y-85950000D01*
X66375812Y-85825518D01*
X66339502Y-85705820D01*
X66280537Y-85595506D01*
X66201185Y-85498815D01*
X66104494Y-85419463D01*
X65994180Y-85360498D01*
X65874482Y-85324188D01*
X65750000Y-85311928D01*
X62325357Y-85311928D01*
X62454028Y-85272896D01*
X62715618Y-85133073D01*
X62944903Y-84944903D01*
X63133073Y-84715618D01*
X63272896Y-84454028D01*
X63358999Y-84170186D01*
X63388072Y-83875000D01*
X63388072Y-82125000D01*
X63358999Y-81829814D01*
X63272896Y-81545972D01*
X63133073Y-81284382D01*
X62944903Y-81055097D01*
X62715618Y-80866927D01*
X62454028Y-80727104D01*
X62170186Y-80641001D01*
X61875000Y-80611928D01*
X60125000Y-80611928D01*
X59829814Y-80641001D01*
X59545972Y-80727104D01*
X59284382Y-80866927D01*
X59055097Y-81055097D01*
X58866927Y-81284382D01*
X58727104Y-81545972D01*
X58641001Y-81829814D01*
X58611928Y-82125000D01*
X50660000Y-82125000D01*
X50660000Y-80660000D01*
X52967581Y-80660000D01*
X53000000Y-80663193D01*
X53032419Y-80660000D01*
X53129383Y-80650450D01*
X53253793Y-80612710D01*
X53368450Y-80551425D01*
X53468948Y-80468948D01*
X53551425Y-80368450D01*
X53612710Y-80253793D01*
X53650450Y-80129383D01*
X53663193Y-80000000D01*
X53660000Y-79967581D01*
X53660000Y-57779872D01*
X55765000Y-57779872D01*
X55765000Y-58220128D01*
X55850890Y-58651925D01*
X56019369Y-59058669D01*
X56263962Y-59424729D01*
X56575271Y-59736038D01*
X56941331Y-59980631D01*
X57348075Y-60149110D01*
X57779872Y-60235000D01*
X58220128Y-60235000D01*
X58651925Y-60149110D01*
X59058669Y-59980631D01*
X59424729Y-59736038D01*
X59736038Y-59424729D01*
X59980631Y-59058669D01*
X60149110Y-58651925D01*
X60235000Y-58220128D01*
X60235000Y-57779872D01*
X60149110Y-57348075D01*
X59980631Y-56941331D01*
X59736038Y-56575271D01*
X59424729Y-56263962D01*
X59058669Y-56019369D01*
X59011909Y-56000000D01*
X65336807Y-56000000D01*
X65340001Y-56032429D01*
X65340000Y-82967581D01*
X65336807Y-83000000D01*
X65349550Y-83129383D01*
X65387290Y-83253793D01*
X65448575Y-83368450D01*
X65531052Y-83468948D01*
X65631550Y-83551425D01*
X65746207Y-83612710D01*
X65870617Y-83650450D01*
X66000000Y-83663193D01*
X66032419Y-83660000D01*
X111967581Y-83660000D01*
X112000000Y-83663193D01*
X112032419Y-83660000D01*
X112129383Y-83650450D01*
X112253793Y-83612710D01*
X112368450Y-83551425D01*
X112468948Y-83468948D01*
X112551425Y-83368450D01*
X112612710Y-83253793D01*
X112650450Y-83129383D01*
X112663193Y-83000000D01*
X112660000Y-82967581D01*
X112660000Y-81084580D01*
X137615000Y-81084580D01*
X137615000Y-83515419D01*
X137678447Y-84159609D01*
X137929186Y-84986185D01*
X138336364Y-85747963D01*
X138884334Y-86415666D01*
X139552037Y-86963636D01*
X140313814Y-87370814D01*
X141140390Y-87621553D01*
X142000000Y-87706217D01*
X142859609Y-87621553D01*
X143686185Y-87370814D01*
X144447963Y-86963636D01*
X145115666Y-86415666D01*
X145663636Y-85747963D01*
X146070814Y-84986186D01*
X146321553Y-84159610D01*
X146385000Y-83515420D01*
X146385000Y-81084581D01*
X146321553Y-80440391D01*
X146070814Y-79613815D01*
X145663636Y-78852037D01*
X145115666Y-78184334D01*
X144447963Y-77636364D01*
X143686186Y-77229186D01*
X142859610Y-76978447D01*
X142000000Y-76893783D01*
X141140391Y-76978447D01*
X140313815Y-77229186D01*
X139552038Y-77636364D01*
X138884335Y-78184334D01*
X138336365Y-78852037D01*
X137929186Y-79613814D01*
X137678447Y-80440390D01*
X137615000Y-81084580D01*
X112660000Y-81084580D01*
X112660000Y-64300032D01*
X116265000Y-64300032D01*
X116265000Y-65699969D01*
X116294445Y-65998930D01*
X116410810Y-66382529D01*
X116599774Y-66736056D01*
X116854077Y-67045924D01*
X117163945Y-67300227D01*
X117517472Y-67489191D01*
X117901071Y-67605555D01*
X118300000Y-67644846D01*
X118698930Y-67605555D01*
X119082529Y-67489191D01*
X119436056Y-67300227D01*
X119745924Y-67045924D01*
X120000227Y-66736056D01*
X120189191Y-66382529D01*
X120305555Y-65998929D01*
X120335000Y-65699968D01*
X120335000Y-64300032D01*
X120965000Y-64300032D01*
X120965000Y-65699969D01*
X120994445Y-65998930D01*
X121110810Y-66382529D01*
X121299774Y-66736056D01*
X121554077Y-67045924D01*
X121863945Y-67300227D01*
X122217472Y-67489191D01*
X122601071Y-67605555D01*
X123000000Y-67644846D01*
X123398930Y-67605555D01*
X123782529Y-67489191D01*
X124136056Y-67300227D01*
X124445924Y-67045924D01*
X124700227Y-66736056D01*
X124889191Y-66382529D01*
X125005555Y-65998929D01*
X125035000Y-65699968D01*
X125035000Y-64300032D01*
X125665000Y-64300032D01*
X125665000Y-65699969D01*
X125694445Y-65998930D01*
X125810810Y-66382529D01*
X125999774Y-66736056D01*
X126254077Y-67045924D01*
X126563945Y-67300227D01*
X126917472Y-67489191D01*
X127301071Y-67605555D01*
X127700000Y-67644846D01*
X128098930Y-67605555D01*
X128482529Y-67489191D01*
X128836056Y-67300227D01*
X129145924Y-67045924D01*
X129400227Y-66736056D01*
X129589191Y-66382529D01*
X129705555Y-65998929D01*
X129735000Y-65699968D01*
X129735000Y-65494767D01*
X129842131Y-65753405D01*
X130108612Y-66152222D01*
X130447778Y-66491388D01*
X130846595Y-66757869D01*
X131289737Y-66941424D01*
X131760173Y-67035000D01*
X132239827Y-67035000D01*
X132710263Y-66941424D01*
X133153405Y-66757869D01*
X133552222Y-66491388D01*
X133891388Y-66152222D01*
X134157869Y-65753405D01*
X134341424Y-65310263D01*
X134435000Y-64839827D01*
X134435000Y-64360173D01*
X134341424Y-63889737D01*
X134157869Y-63446595D01*
X133891388Y-63047778D01*
X133552222Y-62708612D01*
X133153405Y-62442131D01*
X132710263Y-62258576D01*
X132239827Y-62165000D01*
X131760173Y-62165000D01*
X131289737Y-62258576D01*
X130846595Y-62442131D01*
X130447778Y-62708612D01*
X130108612Y-63047778D01*
X129842131Y-63446595D01*
X129666199Y-63871332D01*
X129589191Y-63617471D01*
X129400227Y-63263944D01*
X129145924Y-62954076D01*
X128836056Y-62699773D01*
X128482528Y-62510809D01*
X128098929Y-62394445D01*
X127700000Y-62355154D01*
X127301070Y-62394445D01*
X126917471Y-62510809D01*
X126563944Y-62699773D01*
X126254076Y-62954076D01*
X125999773Y-63263944D01*
X125810809Y-63617472D01*
X125694445Y-64001071D01*
X125665000Y-64300032D01*
X125035000Y-64300032D01*
X125035000Y-64300031D01*
X125005555Y-64001070D01*
X124889191Y-63617471D01*
X124700227Y-63263944D01*
X124445924Y-62954076D01*
X124136056Y-62699773D01*
X123782528Y-62510809D01*
X123398929Y-62394445D01*
X123000000Y-62355154D01*
X122601070Y-62394445D01*
X122217471Y-62510809D01*
X121863944Y-62699773D01*
X121554076Y-62954076D01*
X121299773Y-63263944D01*
X121110809Y-63617472D01*
X120994445Y-64001071D01*
X120965000Y-64300032D01*
X120335000Y-64300032D01*
X120335000Y-64300031D01*
X120305555Y-64001070D01*
X120189191Y-63617471D01*
X120000227Y-63263944D01*
X119745924Y-62954076D01*
X119436056Y-62699773D01*
X119082528Y-62510809D01*
X118698929Y-62394445D01*
X118300000Y-62355154D01*
X117901070Y-62394445D01*
X117517471Y-62510809D01*
X117163944Y-62699773D01*
X116854076Y-62954076D01*
X116599773Y-63263944D01*
X116410809Y-63617472D01*
X116294445Y-64001071D01*
X116265000Y-64300032D01*
X112660000Y-64300032D01*
X112660000Y-58354872D01*
X136805000Y-58354872D01*
X136805000Y-58795128D01*
X136890890Y-59226925D01*
X137059369Y-59633669D01*
X137303962Y-59999729D01*
X137615271Y-60311038D01*
X137981331Y-60555631D01*
X138388075Y-60724110D01*
X138819872Y-60810000D01*
X139260128Y-60810000D01*
X139691925Y-60724110D01*
X140098669Y-60555631D01*
X140464729Y-60311038D01*
X140776038Y-59999729D01*
X141020631Y-59633669D01*
X141189110Y-59226925D01*
X141275000Y-58795128D01*
X141275000Y-58354872D01*
X141189110Y-57923075D01*
X141020631Y-57516331D01*
X140776038Y-57150271D01*
X140464729Y-56838962D01*
X140098669Y-56594369D01*
X139691925Y-56425890D01*
X139260128Y-56340000D01*
X138819872Y-56340000D01*
X138388075Y-56425890D01*
X137981331Y-56594369D01*
X137615271Y-56838962D01*
X137303962Y-57150271D01*
X137059369Y-57516331D01*
X136890890Y-57923075D01*
X136805000Y-58354872D01*
X112660000Y-58354872D01*
X112660000Y-56032419D01*
X112663193Y-56000000D01*
X112650450Y-55870617D01*
X112612710Y-55746207D01*
X112551425Y-55631550D01*
X112468948Y-55531052D01*
X112368450Y-55448575D01*
X112253793Y-55387290D01*
X112129383Y-55349550D01*
X112032419Y-55340000D01*
X112000000Y-55336807D01*
X111967581Y-55340000D01*
X66032419Y-55340000D01*
X66000000Y-55336807D01*
X65967581Y-55340000D01*
X65870617Y-55349550D01*
X65746207Y-55387290D01*
X65631550Y-55448575D01*
X65531052Y-55531052D01*
X65448575Y-55631550D01*
X65387290Y-55746207D01*
X65349550Y-55870617D01*
X65336807Y-56000000D01*
X59011909Y-56000000D01*
X58651925Y-55850890D01*
X58220128Y-55765000D01*
X57779872Y-55765000D01*
X57348075Y-55850890D01*
X56941331Y-56019369D01*
X56575271Y-56263962D01*
X56263962Y-56575271D01*
X56019369Y-56941331D01*
X55850890Y-57348075D01*
X55765000Y-57779872D01*
X53660000Y-57779872D01*
X53660000Y-53660000D01*
X79967581Y-53660000D01*
X80000000Y-53663193D01*
X80032419Y-53660000D01*
X80129383Y-53650450D01*
X80253793Y-53612710D01*
X80368450Y-53551425D01*
X80468948Y-53468948D01*
X80551425Y-53368450D01*
X80612710Y-53253793D01*
X80650450Y-53129383D01*
X80663193Y-53000000D01*
X80660000Y-52967581D01*
X80660000Y-50660000D01*
X119340001Y-50660000D01*
X119340000Y-52967580D01*
%TD*%
M02*
