%TF.GenerationSoftware,KiCad,Pcbnew,(5.1.6)-1*%
%TF.CreationDate,2020-10-02T15:43:25+02:00*%
%TF.ProjectId,netzteilegeregelt,6e65747a-7465-4696-9c65-676572656765,rev?*%
%TF.SameCoordinates,Original*%
%TF.FileFunction,Profile,NP*%
%FSLAX46Y46*%
G04 Gerber Fmt 4.6, Leading zero omitted, Abs format (unit mm)*
G04 Created by KiCad (PCBNEW (5.1.6)-1) date 2020-10-02 15:43:25*
%MOMM*%
%LPD*%
G01*
G04 APERTURE LIST*
%TA.AperFunction,Profile*%
%ADD10C,0.050000*%
%TD*%
%TA.AperFunction,Profile*%
%ADD11C,0.120000*%
%TD*%
G04 APERTURE END LIST*
D10*
X66000000Y-83000000D02*
X66000000Y-56000000D01*
X112000000Y-83000000D02*
X66000000Y-83000000D01*
X112000000Y-56000000D02*
X112000000Y-83000000D01*
X66000000Y-56000000D02*
X112000000Y-56000000D01*
X53000000Y-120000000D02*
X50000000Y-120000000D01*
X53000000Y-147000000D02*
X53000000Y-120000000D01*
X80000000Y-147000000D02*
X80000000Y-150000000D01*
X53000000Y-147000000D02*
X80000000Y-147000000D01*
X147000000Y-120000000D02*
X150000000Y-120000000D01*
X147000000Y-147000000D02*
X147000000Y-120000000D01*
X120000000Y-147000000D02*
X120000000Y-150000000D01*
X147000000Y-147000000D02*
X120000000Y-147000000D01*
X147000000Y-80000000D02*
X150000000Y-80000000D01*
X147000000Y-53000000D02*
X147000000Y-80000000D01*
X120000000Y-53000000D02*
X120000000Y-50000000D01*
X147000000Y-53000000D02*
X120000000Y-53000000D01*
X80000000Y-53000000D02*
X80000000Y-50000000D01*
X53000000Y-53000000D02*
X80000000Y-53000000D01*
X53000000Y-80000000D02*
X50000000Y-80000000D01*
X53000000Y-53000000D02*
X53000000Y-80000000D01*
X50000000Y-120000000D02*
X50000000Y-80000000D01*
X120000000Y-150000000D02*
X80000000Y-150000000D01*
X150000000Y-80000000D02*
X150000000Y-120000000D01*
X80000000Y-50000000D02*
X120000000Y-50000000D01*
D11*
%TO.C,R1*%
X88000000Y-120500000D02*
X86000000Y-120500000D01*
X86000000Y-120500000D02*
X86000000Y-118500000D01*
X86000000Y-118500000D02*
X90000000Y-118500000D01*
X90000000Y-118500000D02*
X90000000Y-120500000D01*
X90000000Y-120500000D02*
X88000000Y-120500000D01*
%TD*%
M02*
