%TF.GenerationSoftware,KiCad,Pcbnew,(5.1.6)-1*%
%TF.CreationDate,2020-10-02T15:43:25+02:00*%
%TF.ProjectId,netzteilegeregelt,6e65747a-7465-4696-9c65-676572656765,rev?*%
%TF.SameCoordinates,Original*%
%TF.FileFunction,Legend,Bot*%
%TF.FilePolarity,Positive*%
%FSLAX46Y46*%
G04 Gerber Fmt 4.6, Leading zero omitted, Abs format (unit mm)*
G04 Created by KiCad (PCBNEW (5.1.6)-1) date 2020-10-02 15:43:25*
%MOMM*%
%LPD*%
G01*
G04 APERTURE LIST*
%ADD10C,0.120000*%
%ADD11C,0.150000*%
%ADD12C,0.500000*%
G04 APERTURE END LIST*
D10*
%TO.C,R2*%
X127500000Y-74300000D02*
X127500000Y-134300000D01*
X124500000Y-134300000D02*
X145500000Y-134300000D01*
X145500000Y-134300000D02*
X145500000Y-74300000D01*
X145500000Y-74300000D02*
X124500000Y-74300000D01*
X132000000Y-134300000D02*
X129000000Y-134300000D01*
X125500000Y-134300000D02*
X125500000Y-74300000D01*
X124500000Y-74300000D02*
X124500000Y-134300000D01*
X126500000Y-134300000D02*
X126500000Y-74300000D01*
X138500000Y-74300000D02*
X138500000Y-134300000D01*
X139500000Y-74300000D02*
X139500000Y-134300000D01*
X130000000Y-134300000D02*
X130000000Y-142300000D01*
X134000000Y-142300000D02*
X134000000Y-134300000D01*
X134000000Y-74300000D02*
X134000000Y-66300000D01*
X130000000Y-66300000D02*
X130000000Y-74300000D01*
X137500000Y-74300000D02*
X137500000Y-134300000D01*
X136500000Y-74300000D02*
X136500000Y-134300000D01*
%TO.C,J5*%
X64810000Y-105460000D02*
X64810000Y-115620000D01*
X57190000Y-105460000D02*
X64810000Y-105460000D01*
X57190000Y-115620000D02*
X57190000Y-105460000D01*
X64810000Y-115620000D02*
X57190000Y-115620000D01*
X63540000Y-115620000D02*
X63540000Y-105460000D01*
%TO.C,J4*%
X64540000Y-130810000D02*
X54380000Y-130810000D01*
X64540000Y-123190000D02*
X64540000Y-130810000D01*
X54380000Y-123190000D02*
X64540000Y-123190000D01*
X54380000Y-130810000D02*
X54380000Y-123190000D01*
X54380000Y-129540000D02*
X64540000Y-129540000D01*
%TO.C,J3*%
X106540000Y-91810000D02*
X96380000Y-91810000D01*
X106540000Y-84190000D02*
X106540000Y-91810000D01*
X96380000Y-84190000D02*
X106540000Y-84190000D01*
X96380000Y-91810000D02*
X96380000Y-84190000D01*
X96380000Y-90540000D02*
X106540000Y-90540000D01*
%TO.C,J2*%
X64900000Y-104300000D02*
X64900000Y-101700000D01*
X50200000Y-104300000D02*
X64900000Y-104300000D01*
X64900000Y-95100000D02*
X63000000Y-95100000D01*
X64900000Y-97800000D02*
X64900000Y-95100000D01*
X50200000Y-95100000D02*
X50200000Y-104300000D01*
X59000000Y-95100000D02*
X50200000Y-95100000D01*
X64050000Y-104500000D02*
X65100000Y-104500000D01*
X65100000Y-103450000D02*
X65100000Y-104500000D01*
%TO.C,J1*%
X64900000Y-92300000D02*
X64900000Y-89700000D01*
X50200000Y-92300000D02*
X64900000Y-92300000D01*
X64900000Y-83100000D02*
X63000000Y-83100000D01*
X64900000Y-85800000D02*
X64900000Y-83100000D01*
X50200000Y-83100000D02*
X50200000Y-92300000D01*
X59000000Y-83100000D02*
X50200000Y-83100000D01*
X64050000Y-92500000D02*
X65100000Y-92500000D01*
X65100000Y-91450000D02*
X65100000Y-92500000D01*
%TO.C,D4*%
X67750000Y-84200000D02*
X67750000Y-95400000D01*
X74250000Y-84200000D02*
X74250000Y-95400000D01*
X74250000Y-84200000D02*
X67750000Y-84200000D01*
%TO.C,D3*%
X81250000Y-97800000D02*
X81250000Y-86600000D01*
X74750000Y-97800000D02*
X74750000Y-86600000D01*
X74750000Y-97800000D02*
X81250000Y-97800000D01*
%TO.C,D2*%
X88750000Y-84200000D02*
X88750000Y-95400000D01*
X95250000Y-84200000D02*
X95250000Y-95400000D01*
X95250000Y-84200000D02*
X88750000Y-84200000D01*
%TO.C,D1*%
X88250000Y-97800000D02*
X88250000Y-86600000D01*
X81750000Y-97800000D02*
X81750000Y-86600000D01*
X81750000Y-97800000D02*
X88250000Y-97800000D01*
%TO.C,C5*%
X110775000Y-117385000D02*
X110775000Y-116135000D01*
X110150000Y-116760000D02*
X111400000Y-116760000D01*
X111640000Y-109704437D02*
X112704437Y-108640000D01*
X111640000Y-118295563D02*
X112704437Y-119360000D01*
X111640000Y-118295563D02*
X111640000Y-115510000D01*
X111640000Y-109704437D02*
X111640000Y-112490000D01*
X112704437Y-108640000D02*
X122360000Y-108640000D01*
X112704437Y-119360000D02*
X122360000Y-119360000D01*
X122360000Y-119360000D02*
X122360000Y-115510000D01*
X122360000Y-108640000D02*
X122360000Y-112490000D01*
%TO.C,C4*%
X110775000Y-141385000D02*
X110775000Y-140135000D01*
X110150000Y-140760000D02*
X111400000Y-140760000D01*
X111640000Y-133704437D02*
X112704437Y-132640000D01*
X111640000Y-142295563D02*
X112704437Y-143360000D01*
X111640000Y-142295563D02*
X111640000Y-139510000D01*
X111640000Y-133704437D02*
X111640000Y-136490000D01*
X112704437Y-132640000D02*
X122360000Y-132640000D01*
X112704437Y-143360000D02*
X122360000Y-143360000D01*
X122360000Y-143360000D02*
X122360000Y-139510000D01*
X122360000Y-132640000D02*
X122360000Y-136490000D01*
%TO.C,C3*%
X110775000Y-93385000D02*
X110775000Y-92135000D01*
X110150000Y-92760000D02*
X111400000Y-92760000D01*
X111640000Y-85704437D02*
X112704437Y-84640000D01*
X111640000Y-94295563D02*
X112704437Y-95360000D01*
X111640000Y-94295563D02*
X111640000Y-91510000D01*
X111640000Y-85704437D02*
X111640000Y-88490000D01*
X112704437Y-84640000D02*
X122360000Y-84640000D01*
X112704437Y-95360000D02*
X122360000Y-95360000D01*
X122360000Y-95360000D02*
X122360000Y-91510000D01*
X122360000Y-84640000D02*
X122360000Y-88490000D01*
%TO.C,C2*%
X110775000Y-129385000D02*
X110775000Y-128135000D01*
X110150000Y-128760000D02*
X111400000Y-128760000D01*
X111640000Y-121704437D02*
X112704437Y-120640000D01*
X111640000Y-130295563D02*
X112704437Y-131360000D01*
X111640000Y-130295563D02*
X111640000Y-127510000D01*
X111640000Y-121704437D02*
X111640000Y-124490000D01*
X112704437Y-120640000D02*
X122360000Y-120640000D01*
X112704437Y-131360000D02*
X122360000Y-131360000D01*
X122360000Y-131360000D02*
X122360000Y-127510000D01*
X122360000Y-120640000D02*
X122360000Y-124490000D01*
%TO.C,C1*%
X110775000Y-105385000D02*
X110775000Y-104135000D01*
X110150000Y-104760000D02*
X111400000Y-104760000D01*
X111640000Y-97704437D02*
X112704437Y-96640000D01*
X111640000Y-106295563D02*
X112704437Y-107360000D01*
X111640000Y-106295563D02*
X111640000Y-103510000D01*
X111640000Y-97704437D02*
X111640000Y-100490000D01*
X112704437Y-96640000D02*
X122360000Y-96640000D01*
X112704437Y-107360000D02*
X122360000Y-107360000D01*
X122360000Y-107360000D02*
X122360000Y-103510000D01*
X122360000Y-96640000D02*
X122360000Y-100490000D01*
%TO.C,R2*%
D11*
X128952380Y-76633333D02*
X128476190Y-76300000D01*
X128952380Y-76061904D02*
X127952380Y-76061904D01*
X127952380Y-76442857D01*
X128000000Y-76538095D01*
X128047619Y-76585714D01*
X128142857Y-76633333D01*
X128285714Y-76633333D01*
X128380952Y-76585714D01*
X128428571Y-76538095D01*
X128476190Y-76442857D01*
X128476190Y-76061904D01*
X128047619Y-77014285D02*
X128000000Y-77061904D01*
X127952380Y-77157142D01*
X127952380Y-77395238D01*
X128000000Y-77490476D01*
X128047619Y-77538095D01*
X128142857Y-77585714D01*
X128238095Y-77585714D01*
X128380952Y-77538095D01*
X128952380Y-76966666D01*
X128952380Y-77585714D01*
D12*
X133809523Y-105538095D02*
X131904761Y-104204761D01*
X133809523Y-103252380D02*
X129809523Y-103252380D01*
X129809523Y-104776190D01*
X130000000Y-105157142D01*
X130190476Y-105347619D01*
X130571428Y-105538095D01*
X131142857Y-105538095D01*
X131523809Y-105347619D01*
X131714285Y-105157142D01*
X131904761Y-104776190D01*
X131904761Y-103252380D01*
%TO.C,J5*%
D11*
X65532380Y-107873333D02*
X66532380Y-108206666D01*
X65532380Y-108540000D01*
X66532380Y-109016190D02*
X66484761Y-108920952D01*
X66437142Y-108873333D01*
X66341904Y-108825714D01*
X66056190Y-108825714D01*
X65960952Y-108873333D01*
X65913333Y-108920952D01*
X65865714Y-109016190D01*
X65865714Y-109159047D01*
X65913333Y-109254285D01*
X65960952Y-109301904D01*
X66056190Y-109349523D01*
X66341904Y-109349523D01*
X66437142Y-109301904D01*
X66484761Y-109254285D01*
X66532380Y-109159047D01*
X66532380Y-109016190D01*
X66532380Y-109920952D02*
X66484761Y-109825714D01*
X66389523Y-109778095D01*
X65532380Y-109778095D01*
X65865714Y-110159047D02*
X65865714Y-110540000D01*
X65532380Y-110301904D02*
X66389523Y-110301904D01*
X66484761Y-110349523D01*
X66532380Y-110444761D01*
X66532380Y-110540000D01*
X66532380Y-111301904D02*
X66008571Y-111301904D01*
X65913333Y-111254285D01*
X65865714Y-111159047D01*
X65865714Y-110968571D01*
X65913333Y-110873333D01*
X66484761Y-111301904D02*
X66532380Y-111206666D01*
X66532380Y-110968571D01*
X66484761Y-110873333D01*
X66389523Y-110825714D01*
X66294285Y-110825714D01*
X66199047Y-110873333D01*
X66151428Y-110968571D01*
X66151428Y-111206666D01*
X66103809Y-111301904D01*
X65865714Y-112206666D02*
X66675238Y-112206666D01*
X66770476Y-112159047D01*
X66818095Y-112111428D01*
X66865714Y-112016190D01*
X66865714Y-111873333D01*
X66818095Y-111778095D01*
X66484761Y-112206666D02*
X66532380Y-112111428D01*
X66532380Y-111920952D01*
X66484761Y-111825714D01*
X66437142Y-111778095D01*
X66341904Y-111730476D01*
X66056190Y-111730476D01*
X65960952Y-111778095D01*
X65913333Y-111825714D01*
X65865714Y-111920952D01*
X65865714Y-112111428D01*
X65913333Y-112206666D01*
X66484761Y-113063809D02*
X66532380Y-112968571D01*
X66532380Y-112778095D01*
X66484761Y-112682857D01*
X66389523Y-112635238D01*
X66008571Y-112635238D01*
X65913333Y-112682857D01*
X65865714Y-112778095D01*
X65865714Y-112968571D01*
X65913333Y-113063809D01*
X66008571Y-113111428D01*
X66103809Y-113111428D01*
X66199047Y-112635238D01*
%TO.C,J4*%
X61983809Y-132246666D02*
X61507619Y-132246666D01*
X62079047Y-132532380D02*
X61745714Y-131532380D01*
X61412380Y-132532380D01*
X61079047Y-132532380D02*
X61079047Y-131865714D01*
X61079047Y-131960952D02*
X61031428Y-131913333D01*
X60936190Y-131865714D01*
X60793333Y-131865714D01*
X60698095Y-131913333D01*
X60650476Y-132008571D01*
X60650476Y-132532380D01*
X60650476Y-132008571D02*
X60602857Y-131913333D01*
X60507619Y-131865714D01*
X60364761Y-131865714D01*
X60269523Y-131913333D01*
X60221904Y-132008571D01*
X60221904Y-132532380D01*
X59745714Y-131865714D02*
X59745714Y-132865714D01*
X59745714Y-131913333D02*
X59650476Y-131865714D01*
X59460000Y-131865714D01*
X59364761Y-131913333D01*
X59317142Y-131960952D01*
X59269523Y-132056190D01*
X59269523Y-132341904D01*
X59317142Y-132437142D01*
X59364761Y-132484761D01*
X59460000Y-132532380D01*
X59650476Y-132532380D01*
X59745714Y-132484761D01*
X58460000Y-132484761D02*
X58555238Y-132532380D01*
X58745714Y-132532380D01*
X58840952Y-132484761D01*
X58888571Y-132389523D01*
X58888571Y-132008571D01*
X58840952Y-131913333D01*
X58745714Y-131865714D01*
X58555238Y-131865714D01*
X58460000Y-131913333D01*
X58412380Y-132008571D01*
X58412380Y-132103809D01*
X58888571Y-132199047D01*
X57983809Y-132532380D02*
X57983809Y-131865714D01*
X57983809Y-132056190D02*
X57936190Y-131960952D01*
X57888571Y-131913333D01*
X57793333Y-131865714D01*
X57698095Y-131865714D01*
X56983809Y-132484761D02*
X57079047Y-132532380D01*
X57269523Y-132532380D01*
X57364761Y-132484761D01*
X57412380Y-132389523D01*
X57412380Y-132008571D01*
X57364761Y-131913333D01*
X57269523Y-131865714D01*
X57079047Y-131865714D01*
X56983809Y-131913333D01*
X56936190Y-132008571D01*
X56936190Y-132103809D01*
X57412380Y-132199047D01*
%TO.C,J3*%
X103912380Y-93532380D02*
X104245714Y-93056190D01*
X104483809Y-93532380D02*
X104483809Y-92532380D01*
X104102857Y-92532380D01*
X104007619Y-92580000D01*
X103960000Y-92627619D01*
X103912380Y-92722857D01*
X103912380Y-92865714D01*
X103960000Y-92960952D01*
X104007619Y-93008571D01*
X104102857Y-93056190D01*
X104483809Y-93056190D01*
X103483809Y-93532380D02*
X103483809Y-92532380D01*
X103055238Y-93532380D02*
X103055238Y-93008571D01*
X103102857Y-92913333D01*
X103198095Y-92865714D01*
X103340952Y-92865714D01*
X103436190Y-92913333D01*
X103483809Y-92960952D01*
X102198095Y-93484761D02*
X102293333Y-93532380D01*
X102483809Y-93532380D01*
X102579047Y-93484761D01*
X102626666Y-93389523D01*
X102626666Y-93008571D01*
X102579047Y-92913333D01*
X102483809Y-92865714D01*
X102293333Y-92865714D01*
X102198095Y-92913333D01*
X102150476Y-93008571D01*
X102150476Y-93103809D01*
X102626666Y-93199047D01*
X101579047Y-93532380D02*
X101674285Y-93484761D01*
X101721904Y-93437142D01*
X101769523Y-93341904D01*
X101769523Y-93056190D01*
X101721904Y-92960952D01*
X101674285Y-92913333D01*
X101579047Y-92865714D01*
X101436190Y-92865714D01*
X101340952Y-92913333D01*
X101293333Y-92960952D01*
X101245714Y-93056190D01*
X101245714Y-93341904D01*
X101293333Y-93437142D01*
X101340952Y-93484761D01*
X101436190Y-93532380D01*
X101579047Y-93532380D01*
X100864761Y-93484761D02*
X100769523Y-93532380D01*
X100579047Y-93532380D01*
X100483809Y-93484761D01*
X100436190Y-93389523D01*
X100436190Y-93341904D01*
X100483809Y-93246666D01*
X100579047Y-93199047D01*
X100721904Y-93199047D01*
X100817142Y-93151428D01*
X100864761Y-93056190D01*
X100864761Y-93008571D01*
X100817142Y-92913333D01*
X100721904Y-92865714D01*
X100579047Y-92865714D01*
X100483809Y-92913333D01*
X100150476Y-92865714D02*
X99769523Y-92865714D01*
X100007619Y-92532380D02*
X100007619Y-93389523D01*
X99960000Y-93484761D01*
X99864761Y-93532380D01*
X99769523Y-93532380D01*
X99007619Y-93532380D02*
X99007619Y-93008571D01*
X99055238Y-92913333D01*
X99150476Y-92865714D01*
X99340952Y-92865714D01*
X99436190Y-92913333D01*
X99007619Y-93484761D02*
X99102857Y-93532380D01*
X99340952Y-93532380D01*
X99436190Y-93484761D01*
X99483809Y-93389523D01*
X99483809Y-93294285D01*
X99436190Y-93199047D01*
X99340952Y-93151428D01*
X99102857Y-93151428D01*
X99007619Y-93103809D01*
X98674285Y-92865714D02*
X98293333Y-92865714D01*
X98531428Y-92532380D02*
X98531428Y-93389523D01*
X98483809Y-93484761D01*
X98388571Y-93532380D01*
X98293333Y-93532380D01*
%TO.C,J2*%
X55883333Y-93402380D02*
X55883333Y-94116666D01*
X55930952Y-94259523D01*
X56026190Y-94354761D01*
X56169047Y-94402380D01*
X56264285Y-94402380D01*
X55454761Y-93497619D02*
X55407142Y-93450000D01*
X55311904Y-93402380D01*
X55073809Y-93402380D01*
X54978571Y-93450000D01*
X54930952Y-93497619D01*
X54883333Y-93592857D01*
X54883333Y-93688095D01*
X54930952Y-93830952D01*
X55502380Y-94402380D01*
X54883333Y-94402380D01*
%TO.C,J1*%
X55883333Y-81402380D02*
X55883333Y-82116666D01*
X55930952Y-82259523D01*
X56026190Y-82354761D01*
X56169047Y-82402380D01*
X56264285Y-82402380D01*
X54883333Y-82402380D02*
X55454761Y-82402380D01*
X55169047Y-82402380D02*
X55169047Y-81402380D01*
X55264285Y-81545238D01*
X55359523Y-81640476D01*
X55454761Y-81688095D01*
%TO.C,D4*%
X67352380Y-90261904D02*
X66352380Y-90261904D01*
X66352380Y-90500000D01*
X66400000Y-90642857D01*
X66495238Y-90738095D01*
X66590476Y-90785714D01*
X66780952Y-90833333D01*
X66923809Y-90833333D01*
X67114285Y-90785714D01*
X67209523Y-90738095D01*
X67304761Y-90642857D01*
X67352380Y-90500000D01*
X67352380Y-90261904D01*
X66685714Y-91690476D02*
X67352380Y-91690476D01*
X66304761Y-91452380D02*
X67019047Y-91214285D01*
X67019047Y-91833333D01*
%TO.C,D3*%
X82552380Y-90261904D02*
X81552380Y-90261904D01*
X81552380Y-90500000D01*
X81600000Y-90642857D01*
X81695238Y-90738095D01*
X81790476Y-90785714D01*
X81980952Y-90833333D01*
X82123809Y-90833333D01*
X82314285Y-90785714D01*
X82409523Y-90738095D01*
X82504761Y-90642857D01*
X82552380Y-90500000D01*
X82552380Y-90261904D01*
X81552380Y-91166666D02*
X81552380Y-91785714D01*
X81933333Y-91452380D01*
X81933333Y-91595238D01*
X81980952Y-91690476D01*
X82028571Y-91738095D01*
X82123809Y-91785714D01*
X82361904Y-91785714D01*
X82457142Y-91738095D01*
X82504761Y-91690476D01*
X82552380Y-91595238D01*
X82552380Y-91309523D01*
X82504761Y-91214285D01*
X82457142Y-91166666D01*
%TO.C,D2*%
X88352380Y-90261904D02*
X87352380Y-90261904D01*
X87352380Y-90500000D01*
X87400000Y-90642857D01*
X87495238Y-90738095D01*
X87590476Y-90785714D01*
X87780952Y-90833333D01*
X87923809Y-90833333D01*
X88114285Y-90785714D01*
X88209523Y-90738095D01*
X88304761Y-90642857D01*
X88352380Y-90500000D01*
X88352380Y-90261904D01*
X87447619Y-91214285D02*
X87400000Y-91261904D01*
X87352380Y-91357142D01*
X87352380Y-91595238D01*
X87400000Y-91690476D01*
X87447619Y-91738095D01*
X87542857Y-91785714D01*
X87638095Y-91785714D01*
X87780952Y-91738095D01*
X88352380Y-91166666D01*
X88352380Y-91785714D01*
%TO.C,D1*%
X89552380Y-90261904D02*
X88552380Y-90261904D01*
X88552380Y-90500000D01*
X88600000Y-90642857D01*
X88695238Y-90738095D01*
X88790476Y-90785714D01*
X88980952Y-90833333D01*
X89123809Y-90833333D01*
X89314285Y-90785714D01*
X89409523Y-90738095D01*
X89504761Y-90642857D01*
X89552380Y-90500000D01*
X89552380Y-90261904D01*
X89552380Y-91785714D02*
X89552380Y-91214285D01*
X89552380Y-91500000D02*
X88552380Y-91500000D01*
X88695238Y-91404761D01*
X88790476Y-91309523D01*
X88838095Y-91214285D01*
%TO.C,C5*%
X120119047Y-107485714D02*
X120119047Y-108152380D01*
X120357142Y-107104761D02*
X120595238Y-107819047D01*
X119976190Y-107819047D01*
X119690476Y-107152380D02*
X119023809Y-107152380D01*
X119452380Y-108152380D01*
X118452380Y-107152380D02*
X118357142Y-107152380D01*
X118261904Y-107200000D01*
X118214285Y-107247619D01*
X118166666Y-107342857D01*
X118119047Y-107533333D01*
X118119047Y-107771428D01*
X118166666Y-107961904D01*
X118214285Y-108057142D01*
X118261904Y-108104761D01*
X118357142Y-108152380D01*
X118452380Y-108152380D01*
X118547619Y-108104761D01*
X118595238Y-108057142D01*
X118642857Y-107961904D01*
X118690476Y-107771428D01*
X118690476Y-107533333D01*
X118642857Y-107342857D01*
X118595238Y-107247619D01*
X118547619Y-107200000D01*
X118452380Y-107152380D01*
X117261904Y-107485714D02*
X117261904Y-108152380D01*
X117690476Y-107485714D02*
X117690476Y-108009523D01*
X117642857Y-108104761D01*
X117547619Y-108152380D01*
X117404761Y-108152380D01*
X117309523Y-108104761D01*
X117261904Y-108057142D01*
X116071428Y-107104761D02*
X116928571Y-108390476D01*
X115833333Y-107152380D02*
X115214285Y-107152380D01*
X115547619Y-107533333D01*
X115404761Y-107533333D01*
X115309523Y-107580952D01*
X115261904Y-107628571D01*
X115214285Y-107723809D01*
X115214285Y-107961904D01*
X115261904Y-108057142D01*
X115309523Y-108104761D01*
X115404761Y-108152380D01*
X115690476Y-108152380D01*
X115785714Y-108104761D01*
X115833333Y-108057142D01*
X114309523Y-107152380D02*
X114785714Y-107152380D01*
X114833333Y-107628571D01*
X114785714Y-107580952D01*
X114690476Y-107533333D01*
X114452380Y-107533333D01*
X114357142Y-107580952D01*
X114309523Y-107628571D01*
X114261904Y-107723809D01*
X114261904Y-107961904D01*
X114309523Y-108057142D01*
X114357142Y-108104761D01*
X114452380Y-108152380D01*
X114690476Y-108152380D01*
X114785714Y-108104761D01*
X114833333Y-108057142D01*
X113976190Y-107152380D02*
X113642857Y-108152380D01*
X113309523Y-107152380D01*
%TO.C,C4*%
X120119047Y-131485714D02*
X120119047Y-132152380D01*
X120357142Y-131104761D02*
X120595238Y-131819047D01*
X119976190Y-131819047D01*
X119690476Y-131152380D02*
X119023809Y-131152380D01*
X119452380Y-132152380D01*
X118452380Y-131152380D02*
X118357142Y-131152380D01*
X118261904Y-131200000D01*
X118214285Y-131247619D01*
X118166666Y-131342857D01*
X118119047Y-131533333D01*
X118119047Y-131771428D01*
X118166666Y-131961904D01*
X118214285Y-132057142D01*
X118261904Y-132104761D01*
X118357142Y-132152380D01*
X118452380Y-132152380D01*
X118547619Y-132104761D01*
X118595238Y-132057142D01*
X118642857Y-131961904D01*
X118690476Y-131771428D01*
X118690476Y-131533333D01*
X118642857Y-131342857D01*
X118595238Y-131247619D01*
X118547619Y-131200000D01*
X118452380Y-131152380D01*
X117261904Y-131485714D02*
X117261904Y-132152380D01*
X117690476Y-131485714D02*
X117690476Y-132009523D01*
X117642857Y-132104761D01*
X117547619Y-132152380D01*
X117404761Y-132152380D01*
X117309523Y-132104761D01*
X117261904Y-132057142D01*
X116071428Y-131104761D02*
X116928571Y-132390476D01*
X115833333Y-131152380D02*
X115214285Y-131152380D01*
X115547619Y-131533333D01*
X115404761Y-131533333D01*
X115309523Y-131580952D01*
X115261904Y-131628571D01*
X115214285Y-131723809D01*
X115214285Y-131961904D01*
X115261904Y-132057142D01*
X115309523Y-132104761D01*
X115404761Y-132152380D01*
X115690476Y-132152380D01*
X115785714Y-132104761D01*
X115833333Y-132057142D01*
X114309523Y-131152380D02*
X114785714Y-131152380D01*
X114833333Y-131628571D01*
X114785714Y-131580952D01*
X114690476Y-131533333D01*
X114452380Y-131533333D01*
X114357142Y-131580952D01*
X114309523Y-131628571D01*
X114261904Y-131723809D01*
X114261904Y-131961904D01*
X114309523Y-132057142D01*
X114357142Y-132104761D01*
X114452380Y-132152380D01*
X114690476Y-132152380D01*
X114785714Y-132104761D01*
X114833333Y-132057142D01*
X113976190Y-131152380D02*
X113642857Y-132152380D01*
X113309523Y-131152380D01*
%TO.C,C3*%
X120119047Y-83485714D02*
X120119047Y-84152380D01*
X120357142Y-83104761D02*
X120595238Y-83819047D01*
X119976190Y-83819047D01*
X119690476Y-83152380D02*
X119023809Y-83152380D01*
X119452380Y-84152380D01*
X118452380Y-83152380D02*
X118357142Y-83152380D01*
X118261904Y-83200000D01*
X118214285Y-83247619D01*
X118166666Y-83342857D01*
X118119047Y-83533333D01*
X118119047Y-83771428D01*
X118166666Y-83961904D01*
X118214285Y-84057142D01*
X118261904Y-84104761D01*
X118357142Y-84152380D01*
X118452380Y-84152380D01*
X118547619Y-84104761D01*
X118595238Y-84057142D01*
X118642857Y-83961904D01*
X118690476Y-83771428D01*
X118690476Y-83533333D01*
X118642857Y-83342857D01*
X118595238Y-83247619D01*
X118547619Y-83200000D01*
X118452380Y-83152380D01*
X117261904Y-83485714D02*
X117261904Y-84152380D01*
X117690476Y-83485714D02*
X117690476Y-84009523D01*
X117642857Y-84104761D01*
X117547619Y-84152380D01*
X117404761Y-84152380D01*
X117309523Y-84104761D01*
X117261904Y-84057142D01*
X116071428Y-83104761D02*
X116928571Y-84390476D01*
X115833333Y-83152380D02*
X115214285Y-83152380D01*
X115547619Y-83533333D01*
X115404761Y-83533333D01*
X115309523Y-83580952D01*
X115261904Y-83628571D01*
X115214285Y-83723809D01*
X115214285Y-83961904D01*
X115261904Y-84057142D01*
X115309523Y-84104761D01*
X115404761Y-84152380D01*
X115690476Y-84152380D01*
X115785714Y-84104761D01*
X115833333Y-84057142D01*
X114309523Y-83152380D02*
X114785714Y-83152380D01*
X114833333Y-83628571D01*
X114785714Y-83580952D01*
X114690476Y-83533333D01*
X114452380Y-83533333D01*
X114357142Y-83580952D01*
X114309523Y-83628571D01*
X114261904Y-83723809D01*
X114261904Y-83961904D01*
X114309523Y-84057142D01*
X114357142Y-84104761D01*
X114452380Y-84152380D01*
X114690476Y-84152380D01*
X114785714Y-84104761D01*
X114833333Y-84057142D01*
X113976190Y-83152380D02*
X113642857Y-84152380D01*
X113309523Y-83152380D01*
%TO.C,C2*%
X120119047Y-119485714D02*
X120119047Y-120152380D01*
X120357142Y-119104761D02*
X120595238Y-119819047D01*
X119976190Y-119819047D01*
X119690476Y-119152380D02*
X119023809Y-119152380D01*
X119452380Y-120152380D01*
X118452380Y-119152380D02*
X118357142Y-119152380D01*
X118261904Y-119200000D01*
X118214285Y-119247619D01*
X118166666Y-119342857D01*
X118119047Y-119533333D01*
X118119047Y-119771428D01*
X118166666Y-119961904D01*
X118214285Y-120057142D01*
X118261904Y-120104761D01*
X118357142Y-120152380D01*
X118452380Y-120152380D01*
X118547619Y-120104761D01*
X118595238Y-120057142D01*
X118642857Y-119961904D01*
X118690476Y-119771428D01*
X118690476Y-119533333D01*
X118642857Y-119342857D01*
X118595238Y-119247619D01*
X118547619Y-119200000D01*
X118452380Y-119152380D01*
X117261904Y-119485714D02*
X117261904Y-120152380D01*
X117690476Y-119485714D02*
X117690476Y-120009523D01*
X117642857Y-120104761D01*
X117547619Y-120152380D01*
X117404761Y-120152380D01*
X117309523Y-120104761D01*
X117261904Y-120057142D01*
X116071428Y-119104761D02*
X116928571Y-120390476D01*
X115833333Y-119152380D02*
X115214285Y-119152380D01*
X115547619Y-119533333D01*
X115404761Y-119533333D01*
X115309523Y-119580952D01*
X115261904Y-119628571D01*
X115214285Y-119723809D01*
X115214285Y-119961904D01*
X115261904Y-120057142D01*
X115309523Y-120104761D01*
X115404761Y-120152380D01*
X115690476Y-120152380D01*
X115785714Y-120104761D01*
X115833333Y-120057142D01*
X114309523Y-119152380D02*
X114785714Y-119152380D01*
X114833333Y-119628571D01*
X114785714Y-119580952D01*
X114690476Y-119533333D01*
X114452380Y-119533333D01*
X114357142Y-119580952D01*
X114309523Y-119628571D01*
X114261904Y-119723809D01*
X114261904Y-119961904D01*
X114309523Y-120057142D01*
X114357142Y-120104761D01*
X114452380Y-120152380D01*
X114690476Y-120152380D01*
X114785714Y-120104761D01*
X114833333Y-120057142D01*
X113976190Y-119152380D02*
X113642857Y-120152380D01*
X113309523Y-119152380D01*
%TO.C,C1*%
X120119047Y-95485714D02*
X120119047Y-96152380D01*
X120357142Y-95104761D02*
X120595238Y-95819047D01*
X119976190Y-95819047D01*
X119690476Y-95152380D02*
X119023809Y-95152380D01*
X119452380Y-96152380D01*
X118452380Y-95152380D02*
X118357142Y-95152380D01*
X118261904Y-95200000D01*
X118214285Y-95247619D01*
X118166666Y-95342857D01*
X118119047Y-95533333D01*
X118119047Y-95771428D01*
X118166666Y-95961904D01*
X118214285Y-96057142D01*
X118261904Y-96104761D01*
X118357142Y-96152380D01*
X118452380Y-96152380D01*
X118547619Y-96104761D01*
X118595238Y-96057142D01*
X118642857Y-95961904D01*
X118690476Y-95771428D01*
X118690476Y-95533333D01*
X118642857Y-95342857D01*
X118595238Y-95247619D01*
X118547619Y-95200000D01*
X118452380Y-95152380D01*
X117261904Y-95485714D02*
X117261904Y-96152380D01*
X117690476Y-95485714D02*
X117690476Y-96009523D01*
X117642857Y-96104761D01*
X117547619Y-96152380D01*
X117404761Y-96152380D01*
X117309523Y-96104761D01*
X117261904Y-96057142D01*
X116071428Y-95104761D02*
X116928571Y-96390476D01*
X115833333Y-95152380D02*
X115214285Y-95152380D01*
X115547619Y-95533333D01*
X115404761Y-95533333D01*
X115309523Y-95580952D01*
X115261904Y-95628571D01*
X115214285Y-95723809D01*
X115214285Y-95961904D01*
X115261904Y-96057142D01*
X115309523Y-96104761D01*
X115404761Y-96152380D01*
X115690476Y-96152380D01*
X115785714Y-96104761D01*
X115833333Y-96057142D01*
X114309523Y-95152380D02*
X114785714Y-95152380D01*
X114833333Y-95628571D01*
X114785714Y-95580952D01*
X114690476Y-95533333D01*
X114452380Y-95533333D01*
X114357142Y-95580952D01*
X114309523Y-95628571D01*
X114261904Y-95723809D01*
X114261904Y-95961904D01*
X114309523Y-96057142D01*
X114357142Y-96104761D01*
X114452380Y-96152380D01*
X114690476Y-96152380D01*
X114785714Y-96104761D01*
X114833333Y-96057142D01*
X113976190Y-95152380D02*
X113642857Y-96152380D01*
X113309523Y-95152380D01*
%TD*%
M02*
